<svg width="460" height="164" viewBox="0 0 460 164" fill="none" xmlns="http://www.w3.org/2000/svg">
<g filter="url(#filter0_d_64_3)">
<rect x="36" y="34" width="409" height="109" rx="15" fill="#F3F3F3"/>
<rect x="37.5" y="35.5" width="406" height="106" rx="13.5" stroke="#8E964D" stroke-width="3"/>
</g>
<g filter="url(#filter1_d_64_3)">
<circle cx="49.5" cy="45.5" r="45.5" fill="url(#paint0_linear_64_3)"/>
</g>
<path d="M168.904 96.28H163.744L162.472 100H159.184L165.232 83.08H167.656L173.704 100H170.248L168.904 96.28ZM164.584 93.64H168.184L166.936 89.896L166.432 87.256H166.312L165.808 89.92L164.584 93.64ZM175.083 88H177.363L177.723 89.44H177.819C178.235 88.832 178.723 88.384 179.283 88.096C179.859 87.808 180.555 87.664 181.371 87.664C182.875 87.664 184.003 88.144 184.755 89.104C185.507 90.048 185.883 91.576 185.883 93.688C185.883 94.712 185.763 95.64 185.523 96.472C185.283 97.288 184.923 97.984 184.443 98.56C183.979 99.136 183.403 99.576 182.715 99.88C182.043 100.184 181.267 100.336 180.387 100.336C179.891 100.336 179.483 100.296 179.163 100.216C178.843 100.152 178.523 100.04 178.203 99.88V104.8H175.083V88ZM180.435 90.304C179.827 90.304 179.347 90.456 178.995 90.76C178.659 91.064 178.395 91.52 178.203 92.128V97.12C178.427 97.296 178.667 97.44 178.923 97.552C179.195 97.648 179.547 97.696 179.979 97.696C180.875 97.696 181.547 97.384 181.995 96.76C182.443 96.12 182.667 95.072 182.667 93.616C182.667 92.56 182.491 91.744 182.139 91.168C181.787 90.592 181.219 90.304 180.435 90.304ZM188.044 88H190.324L190.684 89.44H190.78C191.196 88.832 191.684 88.384 192.244 88.096C192.82 87.808 193.516 87.664 194.332 87.664C195.836 87.664 196.964 88.144 197.716 89.104C198.468 90.048 198.844 91.576 198.844 93.688C198.844 94.712 198.724 95.64 198.484 96.472C198.244 97.288 197.884 97.984 197.404 98.56C196.94 99.136 196.364 99.576 195.676 99.88C195.004 100.184 194.228 100.336 193.348 100.336C192.852 100.336 192.444 100.296 192.124 100.216C191.804 100.152 191.484 100.04 191.164 99.88V104.8H188.044V88ZM193.396 90.304C192.788 90.304 192.308 90.456 191.956 90.76C191.62 91.064 191.356 91.52 191.164 92.128V97.12C191.388 97.296 191.628 97.44 191.884 97.552C192.156 97.648 192.508 97.696 192.94 97.696C193.836 97.696 194.508 97.384 194.956 96.76C195.404 96.12 195.628 95.072 195.628 93.616C195.628 92.56 195.452 91.744 195.1 91.168C194.748 90.592 194.18 90.304 193.396 90.304ZM217.275 95.776C217.275 96.448 217.283 97.12 217.299 97.792C217.315 98.464 217.387 99.208 217.515 100.024H215.283L214.851 98.464H214.755C214.435 99.024 213.971 99.48 213.363 99.832C212.771 100.168 212.067 100.336 211.251 100.336C209.747 100.336 208.579 99.84 207.747 98.848C206.915 97.856 206.499 96.304 206.499 94.192C206.499 92.144 206.963 90.552 207.891 89.416C208.819 88.28 210.179 87.712 211.971 87.712C212.467 87.712 212.875 87.744 213.195 87.808C213.515 87.856 213.835 87.944 214.155 88.072V83.2H217.275V95.776ZM211.971 97.696C212.579 97.696 213.059 97.552 213.411 97.264C213.763 96.96 214.011 96.528 214.155 95.968V90.88C213.931 90.704 213.683 90.576 213.411 90.496C213.139 90.4 212.787 90.352 212.355 90.352C211.475 90.352 210.811 90.648 210.363 91.24C209.931 91.832 209.715 92.848 209.715 94.288C209.715 95.312 209.891 96.136 210.243 96.76C210.611 97.384 211.187 97.696 211.971 97.696ZM229.613 98.968C229.133 99.352 228.477 99.68 227.645 99.952C226.829 100.208 225.957 100.336 225.029 100.336C223.093 100.336 221.677 99.776 220.781 98.656C219.885 97.52 219.437 95.968 219.437 94C219.437 91.888 219.941 90.304 220.949 89.248C221.957 88.192 223.373 87.664 225.197 87.664C225.805 87.664 226.397 87.744 226.973 87.904C227.549 88.064 228.061 88.328 228.509 88.696C228.957 89.064 229.317 89.56 229.589 90.184C229.861 90.808 229.997 91.584 229.997 92.512C229.997 92.848 229.973 93.208 229.925 93.592C229.893 93.976 229.837 94.376 229.757 94.792H222.557C222.605 95.8 222.861 96.56 223.325 97.072C223.805 97.584 224.573 97.84 225.629 97.84C226.285 97.84 226.869 97.744 227.381 97.552C227.909 97.344 228.309 97.136 228.581 96.928L229.613 98.968ZM225.149 90.16C224.333 90.16 223.725 90.408 223.325 90.904C222.941 91.384 222.709 92.032 222.629 92.848H227.093C227.157 91.984 227.021 91.32 226.685 90.856C226.365 90.392 225.853 90.16 225.149 90.16ZM236.024 94.288L236.432 96.136H236.552L236.888 94.24L238.928 88H242.288L237.272 100.12H235.376L230.168 88H233.792L236.024 94.288ZM252.745 98.968C252.265 99.352 251.609 99.68 250.777 99.952C249.961 100.208 249.089 100.336 248.161 100.336C246.225 100.336 244.809 99.776 243.913 98.656C243.017 97.52 242.569 95.968 242.569 94C242.569 91.888 243.073 90.304 244.081 89.248C245.089 88.192 246.505 87.664 248.329 87.664C248.937 87.664 249.529 87.744 250.105 87.904C250.681 88.064 251.193 88.328 251.641 88.696C252.089 89.064 252.449 89.56 252.721 90.184C252.993 90.808 253.129 91.584 253.129 92.512C253.129 92.848 253.105 93.208 253.057 93.592C253.025 93.976 252.969 94.376 252.889 94.792H245.689C245.737 95.8 245.993 96.56 246.457 97.072C246.937 97.584 247.705 97.84 248.761 97.84C249.417 97.84 250.001 97.744 250.513 97.552C251.041 97.344 251.441 97.136 251.713 96.928L252.745 98.968ZM248.281 90.16C247.465 90.16 246.857 90.408 246.457 90.904C246.073 91.384 245.841 92.032 245.761 92.848H250.225C250.289 91.984 250.153 91.32 249.817 90.856C249.497 90.392 248.985 90.16 248.281 90.16ZM258.549 95.968C258.549 96.528 258.621 96.936 258.765 97.192C258.909 97.448 259.141 97.576 259.461 97.576C259.653 97.576 259.837 97.56 260.013 97.528C260.205 97.496 260.437 97.424 260.709 97.312L261.045 99.76C260.789 99.888 260.397 100.016 259.869 100.144C259.341 100.272 258.797 100.336 258.237 100.336C257.325 100.336 256.629 100.128 256.149 99.712C255.669 99.28 255.429 98.576 255.429 97.6V83.2H258.549V95.968ZM261.812 94C261.812 91.968 262.308 90.408 263.3 89.32C264.292 88.216 265.684 87.664 267.476 87.664C268.436 87.664 269.268 87.816 269.972 88.12C270.676 88.424 271.26 88.856 271.724 89.416C272.188 89.96 272.532 90.624 272.756 91.408C272.996 92.192 273.116 93.056 273.116 94C273.116 96.032 272.62 97.6 271.628 98.704C270.652 99.792 269.268 100.336 267.476 100.336C266.516 100.336 265.684 100.184 264.98 99.88C264.276 99.576 263.684 99.152 263.204 98.608C262.74 98.048 262.388 97.376 262.148 96.592C261.924 95.808 261.812 94.944 261.812 94ZM265.028 94C265.028 94.528 265.076 95.016 265.172 95.464C265.268 95.912 265.412 96.304 265.604 96.64C265.796 96.976 266.044 97.24 266.348 97.432C266.668 97.608 267.044 97.696 267.476 97.696C268.292 97.696 268.9 97.4 269.3 96.808C269.7 96.216 269.9 95.28 269.9 94C269.9 92.896 269.716 92.008 269.348 91.336C268.98 90.648 268.356 90.304 267.476 90.304C266.708 90.304 266.108 90.592 265.676 91.168C265.244 91.744 265.028 92.688 265.028 94ZM275.278 88H277.558L277.918 89.44H278.014C278.43 88.832 278.918 88.384 279.478 88.096C280.054 87.808 280.75 87.664 281.566 87.664C283.07 87.664 284.198 88.144 284.95 89.104C285.702 90.048 286.078 91.576 286.078 93.688C286.078 94.712 285.958 95.64 285.718 96.472C285.478 97.288 285.118 97.984 284.638 98.56C284.174 99.136 283.598 99.576 282.91 99.88C282.238 100.184 281.462 100.336 280.582 100.336C280.086 100.336 279.678 100.296 279.358 100.216C279.038 100.152 278.718 100.04 278.398 99.88V104.8H275.278V88ZM280.63 90.304C280.022 90.304 279.542 90.456 279.19 90.76C278.854 91.064 278.59 91.52 278.398 92.128V97.12C278.622 97.296 278.862 97.44 279.118 97.552C279.39 97.648 279.742 97.696 280.174 97.696C281.07 97.696 281.742 97.384 282.19 96.76C282.638 96.12 282.862 95.072 282.862 93.616C282.862 92.56 282.686 91.744 282.334 91.168C281.982 90.592 281.414 90.304 280.63 90.304ZM295.055 100V93.472C295.055 92.368 294.951 91.584 294.743 91.12C294.535 90.656 294.103 90.424 293.447 90.424C292.903 90.424 292.463 90.576 292.127 90.88C291.791 91.168 291.535 91.544 291.359 92.008V100H288.239V88H290.663L291.023 89.584H291.119C291.487 89.072 291.951 88.624 292.511 88.24C293.087 87.856 293.823 87.664 294.719 87.664C295.487 87.664 296.111 87.824 296.591 88.144C297.087 88.448 297.471 88.968 297.743 89.704C298.111 89.08 298.583 88.584 299.159 88.216C299.735 87.848 300.431 87.664 301.247 87.664C301.919 87.664 302.487 87.744 302.951 87.904C303.431 88.064 303.815 88.344 304.103 88.744C304.407 89.128 304.631 89.648 304.775 90.304C304.919 90.96 304.991 91.792 304.991 92.8V100H301.871V93.256C301.871 92.312 301.767 91.608 301.559 91.144C301.367 90.664 300.927 90.424 300.239 90.424C299.679 90.424 299.231 90.576 298.895 90.88C298.575 91.184 298.335 91.6 298.175 92.128V100H295.055ZM317.152 98.968C316.672 99.352 316.016 99.68 315.184 99.952C314.368 100.208 313.496 100.336 312.568 100.336C310.632 100.336 309.216 99.776 308.32 98.656C307.424 97.52 306.976 95.968 306.976 94C306.976 91.888 307.48 90.304 308.488 89.248C309.496 88.192 310.912 87.664 312.736 87.664C313.344 87.664 313.936 87.744 314.512 87.904C315.088 88.064 315.6 88.328 316.048 88.696C316.496 89.064 316.856 89.56 317.128 90.184C317.4 90.808 317.536 91.584 317.536 92.512C317.536 92.848 317.512 93.208 317.464 93.592C317.432 93.976 317.376 94.376 317.296 94.792H310.096C310.144 95.8 310.4 96.56 310.864 97.072C311.344 97.584 312.112 97.84 313.168 97.84C313.824 97.84 314.408 97.744 314.92 97.552C315.448 97.344 315.848 97.136 316.12 96.928L317.152 98.968ZM312.688 90.16C311.872 90.16 311.264 90.408 310.864 90.904C310.48 91.384 310.248 92.032 310.168 92.848H314.632C314.696 91.984 314.56 91.32 314.224 90.856C313.904 90.392 313.392 90.16 312.688 90.16ZM327.083 100V93.184C327.083 92.208 326.939 91.504 326.651 91.072C326.379 90.64 325.907 90.424 325.235 90.424C324.643 90.424 324.139 90.6 323.723 90.952C323.323 91.288 323.035 91.712 322.859 92.224V100H319.739V88H322.211L322.571 89.584H322.667C323.035 89.072 323.523 88.624 324.131 88.24C324.739 87.856 325.523 87.664 326.483 87.664C327.075 87.664 327.603 87.744 328.067 87.904C328.531 88.064 328.923 88.328 329.243 88.696C329.563 89.064 329.803 89.568 329.963 90.208C330.123 90.832 330.203 91.608 330.203 92.536V100H327.083ZM331.569 88H333.225V85.744L336.345 84.856V88H339.273V90.64H336.345V95.248C336.345 96.08 336.425 96.68 336.585 97.048C336.761 97.4 337.081 97.576 337.545 97.576C337.865 97.576 338.137 97.544 338.361 97.48C338.601 97.416 338.865 97.32 339.153 97.192L339.705 99.592C339.273 99.8 338.769 99.976 338.193 100.12C337.617 100.264 337.033 100.336 336.441 100.336C335.337 100.336 334.521 100.056 333.993 99.496C333.481 98.92 333.225 97.984 333.225 96.688V90.64H331.569V88Z" fill="#333333"/>
<path d="M48.9876 28.5843L50.1612 26.5609C50.3339 26.2612 50.5639 25.9985 50.8381 25.7877C51.1123 25.5769 51.4253 25.4221 51.7594 25.3323C52.0934 25.2425 52.4418 25.2193 52.7848 25.2642C53.1277 25.309 53.4585 25.421 53.7582 25.5936C54.0579 25.7663 54.3206 25.9963 54.5314 26.2705C54.7422 26.5447 54.897 26.8578 54.9868 27.1918C55.0766 27.5258 55.0998 27.8742 55.055 28.2172C55.0101 28.5602 54.8982 28.8909 54.7255 29.1906L43.4457 48.7204H51.6049C54.247 48.7204 55.7299 51.8266 54.5832 53.9798H30.6706C29.2144 53.9798 28.0409 52.8063 28.0409 51.3501C28.0409 49.894 29.2144 48.7204 30.6706 48.7204H37.3737L45.9578 33.8436L43.2766 29.1906C42.9601 28.5875 42.8893 27.8853 43.0791 27.2312C43.2689 26.5771 43.7045 26.0219 44.2947 25.6818C44.8849 25.3418 45.5837 25.2435 46.2448 25.4073C46.9059 25.5712 47.4779 25.9846 47.8409 26.5609L48.9876 28.5843ZM38.8422 56.6858L36.3156 61.0686C36.143 61.3683 35.913 61.6311 35.6387 61.8419C35.3645 62.0527 35.0515 62.2074 34.7175 62.2972C34.3834 62.3871 34.035 62.4102 33.6921 62.3654C33.3491 62.3206 33.0183 62.2086 32.7186 62.0359C32.4189 61.8633 32.1562 61.6333 31.9454 61.3591C31.7346 61.0848 31.5798 60.7718 31.49 60.4378C31.4002 60.1038 31.377 59.7553 31.4219 59.4124C31.4667 59.0694 31.5786 58.7386 31.7513 58.4389L33.6344 55.1905C35.7484 54.5326 37.4768 55.0358 38.8422 56.6858ZM60.6139 48.7328H67.4594C68.9155 48.7328 70.0891 49.9064 70.0891 51.3625C70.0891 52.8186 68.9155 53.9922 67.4594 53.9922H63.6561L66.2219 58.4389C66.5384 59.042 66.6091 59.7442 66.4193 60.3983C66.2295 61.0525 65.7939 61.6077 65.2037 61.9477C64.6136 62.2877 63.9147 62.3861 63.2536 62.2222C62.5926 62.0583 62.0206 61.6449 61.6576 61.0686C57.3387 53.5797 54.0902 47.9717 51.9391 44.2345C49.7342 40.4312 51.3079 36.6156 52.8672 35.3266C54.5935 38.2924 57.1716 42.7639 60.6139 48.7328ZM49 14.0312C31.3388 14.0312 17.0312 28.3409 17.0312 46C17.0312 63.6591 31.3409 77.9688 49 77.9688C66.6612 77.9688 80.9688 63.6591 80.9688 46C80.9688 28.3409 66.6591 14.0312 49 14.0312ZM76.8438 46C76.8438 61.3017 64.4564 73.8438 49 73.8438C33.6983 73.8438 21.1562 61.4564 21.1562 46C21.1562 30.6983 33.5436 18.1562 49 18.1562C64.3017 18.1562 76.8438 30.5436 76.8438 46Z" fill="#333333"/>
<defs>
<filter id="filter0_d_64_3" x="21" y="25" width="439" height="139" filterUnits="userSpaceOnUse" color-interpolation-filters="sRGB">
<feFlood flood-opacity="0" result="BackgroundImageFix"/>
<feColorMatrix in="SourceAlpha" type="matrix" values="0 0 0 0 0 0 0 0 0 0 0 0 0 0 0 0 0 0 127 0" result="hardAlpha"/>
<feOffset dy="6"/>
<feGaussianBlur stdDeviation="7.5"/>
<feComposite in2="hardAlpha" operator="out"/>
<feColorMatrix type="matrix" values="0 0 0 0 0 0 0 0 0 0 0 0 0 0 0 0 0 0 0.25 0"/>
<feBlend mode="normal" in2="BackgroundImageFix" result="effect1_dropShadow_64_3"/>
<feBlend mode="normal" in="SourceGraphic" in2="effect1_dropShadow_64_3" result="shape"/>
</filter>
<filter id="filter1_d_64_3" x="0" y="0" width="99" height="99" filterUnits="userSpaceOnUse" color-interpolation-filters="sRGB">
<feFlood flood-opacity="0" result="BackgroundImageFix"/>
<feColorMatrix in="SourceAlpha" type="matrix" values="0 0 0 0 0 0 0 0 0 0 0 0 0 0 0 0 0 0 127 0" result="hardAlpha"/>
<feOffset dy="4"/>
<feGaussianBlur stdDeviation="2"/>
<feComposite in2="hardAlpha" operator="out"/>
<feColorMatrix type="matrix" values="0 0 0 0 0 0 0 0 0 0 0 0 0 0 0 0 0 0 0.25 0"/>
<feBlend mode="normal" in2="BackgroundImageFix" result="effect1_dropShadow_64_3"/>
<feBlend mode="normal" in="SourceGraphic" in2="effect1_dropShadow_64_3" result="shape"/>
</filter>
<linearGradient id="paint0_linear_64_3" x1="15.5" y1="22" x2="80.5" y2="78" gradientUnits="userSpaceOnUse">
<stop stop-color="#D9E476"/>
<stop offset="1" stop-color="#B0B960"/>
</linearGradient>
</defs>
</svg>
