<svg width="45" height="43" viewBox="0 0 45 43" fill="none" xmlns="http://www.w3.org/2000/svg">
<path d="M45 21.2966C45 26.9449 42.6295 32.3617 38.4099 36.3556C34.1903 40.3495 28.4674 42.5933 22.5 42.5933C16.5326 42.5933 10.8097 40.3495 6.59009 36.3556C2.37052 32.3617 -4.21991e-06 26.9448 -3.33533e-06 21.2966C-2.45074e-06 15.6484 2.37053 10.2315 6.5901 6.23764C10.8097 2.24375 16.5326 2.89066e-06 22.5 3.93402e-06C28.4674 4.97739e-06 34.1903 2.24375 38.4099 6.23765C42.6295 10.2315 45 15.6484 45 21.2966ZM23.9062 11.9794C23.9062 11.6263 23.7581 11.2878 23.4944 11.0382C23.2306 10.7886 22.873 10.6483 22.5 10.6483C22.127 10.6483 21.7694 10.7886 21.5056 11.0382C21.2419 11.2878 21.0937 11.6263 21.0937 11.9794L21.0937 27.4008L15.0581 21.6853C14.7941 21.4354 14.4359 21.2949 14.0625 21.2949C13.6891 21.2949 13.3309 21.4354 13.0669 21.6853C12.8028 21.9352 12.6545 22.2742 12.6545 22.6277C12.6545 22.9811 12.8028 23.3201 13.0669 23.57L21.5044 31.5563C21.635 31.6802 21.7902 31.7786 21.961 31.8457C22.1319 31.9128 22.315 31.9473 22.5 31.9473C22.685 31.9473 22.8681 31.9128 23.039 31.8457C23.2098 31.7786 23.365 31.6802 23.4956 31.5563L31.9331 23.57C32.1972 23.3201 32.3455 22.9811 32.3455 22.6277C32.3455 22.2742 32.1972 21.9352 31.9331 21.6853C31.6691 21.4354 31.3109 21.295 30.9375 21.295C30.5641 21.295 30.2059 21.4354 29.9419 21.6853L23.9062 27.4008L23.9062 11.9794Z" fill="#CADB2B"/>
</svg>
