<svg width="460" height="164" viewBox="0 0 460 164" fill="none" xmlns="http://www.w3.org/2000/svg">
<g filter="url(#filter0_d_17_623)">
<rect x="36" y="34" width="409" height="109" rx="15" fill="#F3F3F3"/>
<rect x="37.5" y="35.5" width="406" height="106" rx="13.5" stroke="#8E964D" stroke-width="3"/>
</g>
<path d="M107.491 79.2C107.827 79.152 108.203 79.112 108.619 79.08C109.051 79.048 109.491 79.024 109.939 79.008C110.387 78.992 110.819 78.984 111.235 78.984C111.667 78.968 112.051 78.96 112.387 78.96C113.875 78.96 115.147 79.168 116.203 79.584C117.259 80 118.115 80.584 118.771 81.336C119.427 82.088 119.907 82.984 120.211 84.024C120.515 85.064 120.667 86.208 120.667 87.456C120.667 88.592 120.523 89.688 120.235 90.744C119.947 91.8 119.467 92.736 118.795 93.552C118.123 94.368 117.235 95.024 116.131 95.52C115.043 96.016 113.691 96.264 112.075 96.264C111.819 96.264 111.475 96.256 111.043 96.24C110.627 96.224 110.187 96.2 109.723 96.168C109.275 96.152 108.843 96.128 108.427 96.096C108.011 96.08 107.699 96.056 107.491 96.024V79.2ZM112.651 81.888C112.299 81.888 111.939 81.896 111.571 81.912C111.219 81.928 110.955 81.952 110.779 81.984V93.24C110.843 93.256 110.947 93.272 111.091 93.288C111.251 93.288 111.419 93.296 111.595 93.312C111.771 93.312 111.939 93.32 112.099 93.336C112.259 93.336 112.379 93.336 112.459 93.336C113.387 93.336 114.155 93.176 114.763 92.856C115.387 92.52 115.875 92.08 116.227 91.536C116.595 90.992 116.851 90.368 116.995 89.664C117.139 88.944 117.211 88.208 117.211 87.456C117.211 86.8 117.147 86.144 117.019 85.488C116.891 84.816 116.651 84.216 116.299 83.688C115.963 83.16 115.499 82.728 114.907 82.392C114.315 82.056 113.563 81.888 112.651 81.888ZM122.886 84.696C123.526 84.408 124.286 84.184 125.166 84.024C126.046 83.848 126.966 83.76 127.926 83.76C128.758 83.76 129.454 83.864 130.014 84.072C130.574 84.264 131.014 84.544 131.334 84.912C131.67 85.28 131.902 85.72 132.03 86.232C132.174 86.744 132.246 87.32 132.246 87.96C132.246 88.664 132.222 89.376 132.174 90.096C132.126 90.8 132.094 91.496 132.078 92.184C132.078 92.872 132.102 93.544 132.15 94.2C132.198 94.84 132.318 95.448 132.51 96.024H129.966L129.462 94.368H129.342C129.022 94.864 128.574 95.296 127.998 95.664C127.438 96.016 126.71 96.192 125.814 96.192C125.254 96.192 124.75 96.112 124.302 95.952C123.854 95.776 123.47 95.536 123.15 95.232C122.83 94.912 122.582 94.544 122.406 94.128C122.23 93.696 122.142 93.216 122.142 92.688C122.142 91.952 122.302 91.336 122.622 90.84C122.958 90.328 123.43 89.92 124.038 89.616C124.662 89.296 125.398 89.08 126.246 88.968C127.11 88.84 128.07 88.8 129.126 88.848C129.238 87.952 129.174 87.312 128.934 86.928C128.694 86.528 128.158 86.328 127.326 86.328C126.702 86.328 126.038 86.392 125.334 86.52C124.646 86.648 124.078 86.816 123.63 87.024L122.886 84.696ZM126.846 93.624C127.47 93.624 127.966 93.488 128.334 93.216C128.702 92.928 128.974 92.624 129.15 92.304V90.744C128.654 90.696 128.174 90.688 127.71 90.72C127.262 90.752 126.862 90.824 126.51 90.936C126.158 91.048 125.878 91.208 125.67 91.416C125.462 91.624 125.358 91.888 125.358 92.208C125.358 92.656 125.486 93.008 125.742 93.264C126.014 93.504 126.382 93.624 126.846 93.624ZM133.616 84H135.272V81.744L138.392 80.856V84H141.32V86.64H138.392V91.248C138.392 92.08 138.472 92.68 138.632 93.048C138.808 93.4 139.128 93.576 139.592 93.576C139.912 93.576 140.184 93.544 140.408 93.48C140.648 93.416 140.912 93.32 141.2 93.192L141.752 95.592C141.32 95.8 140.816 95.976 140.24 96.12C139.664 96.264 139.08 96.336 138.488 96.336C137.384 96.336 136.568 96.056 136.04 95.496C135.528 94.92 135.272 93.984 135.272 92.688V86.64H133.616V84ZM143.159 84.696C143.799 84.408 144.559 84.184 145.439 84.024C146.319 83.848 147.239 83.76 148.199 83.76C149.031 83.76 149.727 83.864 150.287 84.072C150.847 84.264 151.287 84.544 151.607 84.912C151.943 85.28 152.175 85.72 152.303 86.232C152.447 86.744 152.519 87.32 152.519 87.96C152.519 88.664 152.495 89.376 152.447 90.096C152.399 90.8 152.367 91.496 152.351 92.184C152.351 92.872 152.375 93.544 152.423 94.2C152.471 94.84 152.591 95.448 152.783 96.024H150.239L149.735 94.368H149.615C149.295 94.864 148.847 95.296 148.271 95.664C147.711 96.016 146.983 96.192 146.087 96.192C145.527 96.192 145.023 96.112 144.575 95.952C144.127 95.776 143.743 95.536 143.423 95.232C143.103 94.912 142.855 94.544 142.679 94.128C142.503 93.696 142.415 93.216 142.415 92.688C142.415 91.952 142.575 91.336 142.895 90.84C143.231 90.328 143.703 89.92 144.311 89.616C144.935 89.296 145.671 89.08 146.519 88.968C147.383 88.84 148.343 88.8 149.399 88.848C149.511 87.952 149.447 87.312 149.207 86.928C148.967 86.528 148.431 86.328 147.599 86.328C146.975 86.328 146.311 86.392 145.607 86.52C144.919 86.648 144.351 86.816 143.903 87.024L143.159 84.696ZM147.119 93.624C147.743 93.624 148.239 93.488 148.607 93.216C148.975 92.928 149.247 92.624 149.423 92.304V90.744C148.927 90.696 148.447 90.688 147.983 90.72C147.535 90.752 147.135 90.824 146.783 90.936C146.431 91.048 146.151 91.208 145.943 91.416C145.735 91.624 145.631 91.888 145.631 92.208C145.631 92.656 145.759 93.008 146.015 93.264C146.287 93.504 146.655 93.624 147.119 93.624ZM170.808 94.968C170.328 95.352 169.672 95.68 168.84 95.952C168.024 96.208 167.152 96.336 166.224 96.336C164.288 96.336 162.872 95.776 161.976 94.656C161.08 93.52 160.632 91.968 160.632 90C160.632 87.888 161.136 86.304 162.144 85.248C163.152 84.192 164.568 83.664 166.392 83.664C167 83.664 167.592 83.744 168.168 83.904C168.744 84.064 169.256 84.328 169.704 84.696C170.152 85.064 170.512 85.56 170.784 86.184C171.056 86.808 171.192 87.584 171.192 88.512C171.192 88.848 171.168 89.208 171.12 89.592C171.088 89.976 171.032 90.376 170.952 90.792H163.752C163.8 91.8 164.056 92.56 164.52 93.072C165 93.584 165.768 93.84 166.824 93.84C167.48 93.84 168.064 93.744 168.576 93.552C169.104 93.344 169.504 93.136 169.776 92.928L170.808 94.968ZM166.344 86.16C165.528 86.16 164.92 86.408 164.52 86.904C164.136 87.384 163.904 88.032 163.824 88.848H168.288C168.352 87.984 168.216 87.32 167.88 86.856C167.56 86.392 167.048 86.16 166.344 86.16ZM180.739 96V89.184C180.739 88.208 180.595 87.504 180.307 87.072C180.035 86.64 179.563 86.424 178.891 86.424C178.299 86.424 177.795 86.6 177.379 86.952C176.979 87.288 176.691 87.712 176.515 88.224V96H173.395V84H175.867L176.227 85.584H176.323C176.691 85.072 177.179 84.624 177.787 84.24C178.395 83.856 179.179 83.664 180.139 83.664C180.731 83.664 181.259 83.744 181.723 83.904C182.187 84.064 182.579 84.328 182.899 84.696C183.219 85.064 183.459 85.568 183.619 86.208C183.779 86.832 183.859 87.608 183.859 88.536V96H180.739ZM185.225 84H186.881V81.744L190.001 80.856V84H192.929V86.64H190.001V91.248C190.001 92.08 190.081 92.68 190.241 93.048C190.417 93.4 190.737 93.576 191.201 93.576C191.521 93.576 191.793 93.544 192.017 93.48C192.257 93.416 192.521 93.32 192.809 93.192L193.361 95.592C192.929 95.8 192.425 95.976 191.849 96.12C191.273 96.264 190.689 96.336 190.097 96.336C188.993 96.336 188.177 96.056 187.649 95.496C187.137 94.92 186.881 93.984 186.881 92.688V86.64H185.225V84ZM201.465 86.928C200.969 86.752 200.521 86.664 200.121 86.664C199.561 86.664 199.089 86.816 198.705 87.12C198.337 87.408 198.089 87.784 197.961 88.248V96H194.841V84H197.265L197.625 85.584H197.721C197.993 84.992 198.361 84.536 198.825 84.216C199.289 83.896 199.833 83.736 200.457 83.736C200.873 83.736 201.345 83.824 201.873 84L201.465 86.928ZM207.623 90.744L208.055 92.616H208.199L208.511 90.72L210.335 84H213.551L209.903 94.824C209.599 95.72 209.303 96.536 209.015 97.272C208.743 98.024 208.439 98.672 208.103 99.216C207.767 99.76 207.391 100.176 206.975 100.464C206.575 100.768 206.095 100.92 205.535 100.92C204.703 100.92 204.039 100.784 203.543 100.512L204.119 98.016C204.359 98.112 204.599 98.16 204.839 98.16C205.207 98.16 205.559 98 205.895 97.68C206.247 97.376 206.511 96.816 206.687 96L201.671 84H205.415L207.623 90.744ZM219.847 84.696C220.487 84.408 221.247 84.184 222.127 84.024C223.007 83.848 223.927 83.76 224.887 83.76C225.719 83.76 226.415 83.864 226.975 84.072C227.535 84.264 227.975 84.544 228.295 84.912C228.631 85.28 228.863 85.72 228.991 86.232C229.135 86.744 229.207 87.32 229.207 87.96C229.207 88.664 229.183 89.376 229.135 90.096C229.087 90.8 229.055 91.496 229.039 92.184C229.039 92.872 229.063 93.544 229.111 94.2C229.159 94.84 229.279 95.448 229.471 96.024H226.927L226.423 94.368H226.303C225.983 94.864 225.535 95.296 224.959 95.664C224.399 96.016 223.671 96.192 222.775 96.192C222.215 96.192 221.711 96.112 221.263 95.952C220.815 95.776 220.431 95.536 220.111 95.232C219.791 94.912 219.543 94.544 219.367 94.128C219.191 93.696 219.103 93.216 219.103 92.688C219.103 91.952 219.263 91.336 219.583 90.84C219.919 90.328 220.391 89.92 220.999 89.616C221.623 89.296 222.359 89.08 223.207 88.968C224.071 88.84 225.031 88.8 226.087 88.848C226.199 87.952 226.135 87.312 225.895 86.928C225.655 86.528 225.119 86.328 224.287 86.328C223.663 86.328 222.999 86.392 222.295 86.52C221.607 86.648 221.039 86.816 220.591 87.024L219.847 84.696ZM223.807 93.624C224.431 93.624 224.927 93.488 225.295 93.216C225.663 92.928 225.935 92.624 226.111 92.304V90.744C225.615 90.696 225.135 90.688 224.671 90.72C224.223 90.752 223.823 90.824 223.471 90.936C223.119 91.048 222.839 91.208 222.631 91.416C222.423 91.624 222.319 91.888 222.319 92.208C222.319 92.656 222.447 93.008 222.703 93.264C222.975 93.504 223.343 93.624 223.807 93.624ZM239.169 96V89.184C239.169 88.208 239.025 87.504 238.737 87.072C238.465 86.64 237.993 86.424 237.321 86.424C236.729 86.424 236.225 86.6 235.809 86.952C235.409 87.288 235.121 87.712 234.945 88.224V96H231.825V84H234.297L234.657 85.584H234.753C235.121 85.072 235.609 84.624 236.217 84.24C236.825 83.856 237.609 83.664 238.569 83.664C239.161 83.664 239.689 83.744 240.153 83.904C240.617 84.064 241.009 84.328 241.329 84.696C241.649 85.064 241.889 85.568 242.049 86.208C242.209 86.832 242.289 87.608 242.289 88.536V96H239.169ZM255.103 91.776C255.103 92.448 255.111 93.12 255.127 93.792C255.143 94.464 255.215 95.208 255.343 96.024H253.111L252.679 94.464H252.583C252.263 95.024 251.799 95.48 251.191 95.832C250.599 96.168 249.895 96.336 249.079 96.336C247.575 96.336 246.407 95.84 245.575 94.848C244.743 93.856 244.327 92.304 244.327 90.192C244.327 88.144 244.791 86.552 245.719 85.416C246.647 84.28 248.007 83.712 249.799 83.712C250.295 83.712 250.703 83.744 251.023 83.808C251.343 83.856 251.663 83.944 251.983 84.072V79.2H255.103V91.776ZM249.799 93.696C250.407 93.696 250.887 93.552 251.239 93.264C251.591 92.96 251.839 92.528 251.983 91.968V86.88C251.759 86.704 251.511 86.576 251.239 86.496C250.967 86.4 250.615 86.352 250.183 86.352C249.303 86.352 248.639 86.648 248.191 87.24C247.759 87.832 247.543 88.848 247.543 90.288C247.543 91.312 247.719 92.136 248.071 92.76C248.439 93.384 249.015 93.696 249.799 93.696ZM275.287 83.112C275.287 83.528 275.231 83.944 275.119 84.36C275.023 84.776 274.855 85.16 274.615 85.512C274.375 85.848 274.063 86.152 273.679 86.424C273.295 86.68 272.831 86.872 272.287 87V87.144C272.767 87.224 273.223 87.36 273.655 87.552C274.087 87.744 274.463 88.008 274.783 88.344C275.103 88.68 275.351 89.088 275.527 89.568C275.719 90.048 275.815 90.616 275.815 91.272C275.815 92.136 275.631 92.888 275.263 93.528C274.895 94.152 274.399 94.664 273.775 95.064C273.167 95.464 272.471 95.76 271.687 95.952C270.903 96.144 270.095 96.24 269.263 96.24C268.991 96.24 268.639 96.24 268.207 96.24C267.791 96.24 267.335 96.224 266.839 96.192C266.359 96.176 265.863 96.144 265.351 96.096C264.855 96.048 264.399 95.976 263.983 95.88V79.32C264.287 79.272 264.631 79.224 265.015 79.176C265.415 79.128 265.839 79.088 266.287 79.056C266.735 79.024 267.191 79 267.655 78.984C268.135 78.968 268.607 78.96 269.071 78.96C269.855 78.96 270.615 79.024 271.351 79.152C272.103 79.264 272.767 79.472 273.343 79.776C273.935 80.08 274.407 80.504 274.759 81.048C275.111 81.592 275.287 82.28 275.287 83.112ZM269.287 93.528C269.687 93.528 270.071 93.48 270.439 93.384C270.823 93.288 271.159 93.144 271.447 92.952C271.735 92.744 271.967 92.488 272.143 92.184C272.319 91.88 272.407 91.52 272.407 91.104C272.407 90.576 272.303 90.16 272.095 89.856C271.887 89.552 271.615 89.32 271.279 89.16C270.943 88.984 270.567 88.872 270.151 88.824C269.735 88.776 269.319 88.752 268.903 88.752H267.151V93.384C267.231 93.416 267.359 93.44 267.535 93.456C267.711 93.472 267.895 93.488 268.087 93.504C268.295 93.504 268.503 93.512 268.711 93.528C268.935 93.528 269.127 93.528 269.287 93.528ZM268.207 86.256C268.431 86.256 268.687 86.248 268.975 86.232C269.279 86.216 269.527 86.192 269.719 86.16C270.327 85.968 270.847 85.68 271.279 85.296C271.727 84.912 271.951 84.408 271.951 83.784C271.951 83.368 271.871 83.024 271.711 82.752C271.551 82.48 271.335 82.264 271.063 82.104C270.807 81.944 270.511 81.832 270.175 81.768C269.839 81.704 269.487 81.672 269.119 81.672C268.703 81.672 268.319 81.68 267.967 81.696C267.615 81.712 267.343 81.736 267.151 81.768V86.256H268.207ZM278.163 79.368C278.835 79.24 279.571 79.144 280.371 79.08C281.187 79 281.995 78.96 282.795 78.96C283.627 78.96 284.459 79.032 285.291 79.176C286.139 79.304 286.899 79.576 287.571 79.992C288.243 80.392 288.787 80.96 289.203 81.696C289.635 82.416 289.851 83.36 289.851 84.528C289.851 85.584 289.667 86.48 289.299 87.216C288.931 87.936 288.443 88.528 287.835 88.992C287.227 89.456 286.531 89.792 285.747 90C284.979 90.208 284.179 90.312 283.347 90.312C283.267 90.312 283.139 90.312 282.963 90.312C282.787 90.312 282.603 90.312 282.411 90.312C282.219 90.296 282.027 90.28 281.835 90.264C281.659 90.248 281.531 90.232 281.451 90.216V96H278.163V79.368ZM283.059 81.792C282.739 81.792 282.435 81.808 282.147 81.84C281.859 81.856 281.627 81.88 281.451 81.912V87.36C281.515 87.376 281.611 87.392 281.739 87.408C281.867 87.424 282.003 87.44 282.147 87.456C282.291 87.456 282.427 87.456 282.555 87.456C282.699 87.456 282.803 87.456 282.867 87.456C283.299 87.456 283.723 87.416 284.139 87.336C284.571 87.256 284.955 87.112 285.291 86.904C285.627 86.68 285.891 86.376 286.083 85.992C286.291 85.608 286.395 85.104 286.395 84.48C286.395 83.952 286.299 83.52 286.107 83.184C285.915 82.832 285.659 82.552 285.339 82.344C285.035 82.136 284.683 81.992 284.283 81.912C283.883 81.832 283.475 81.792 283.059 81.792ZM291.111 87.6C291.111 84.8 291.727 82.648 292.959 81.144C294.191 79.624 295.951 78.864 298.239 78.864C299.439 78.864 300.487 79.072 301.383 79.488C302.279 79.904 303.023 80.496 303.615 81.264C304.207 82.032 304.647 82.952 304.935 84.024C305.223 85.096 305.367 86.288 305.367 87.6C305.367 90.4 304.743 92.56 303.495 94.08C302.263 95.584 300.511 96.336 298.239 96.336C297.023 96.336 295.967 96.128 295.071 95.712C294.175 95.296 293.431 94.704 292.839 93.936C292.263 93.168 291.831 92.248 291.543 91.176C291.255 90.104 291.111 88.912 291.111 87.6ZM294.567 87.6C294.567 88.448 294.639 89.232 294.783 89.952C294.927 90.656 295.143 91.264 295.431 91.776C295.735 92.288 296.119 92.688 296.583 92.976C297.047 93.264 297.599 93.408 298.239 93.408C299.407 93.408 300.311 92.952 300.951 92.04C301.591 91.128 301.911 89.648 301.911 87.6C301.911 86.784 301.839 86.024 301.695 85.32C301.567 84.616 301.359 84 301.071 83.472C300.783 82.944 300.407 82.536 299.943 82.248C299.479 81.944 298.911 81.792 298.239 81.792C297.071 81.792 296.167 82.264 295.527 83.208C294.887 84.136 294.567 85.6 294.567 87.6ZM318.379 92.688C318.379 92.368 318.243 92.112 317.971 91.92C317.699 91.728 317.363 91.552 316.963 91.392C316.563 91.232 316.123 91.072 315.643 90.912C315.163 90.736 314.723 90.504 314.323 90.216C313.923 89.912 313.587 89.536 313.315 89.088C313.043 88.624 312.907 88.032 312.907 87.312C312.907 86.128 313.259 85.224 313.963 84.6C314.667 83.976 315.683 83.664 317.011 83.664C317.923 83.664 318.747 83.76 319.483 83.952C320.219 84.144 320.795 84.36 321.211 84.6L320.515 86.856C320.147 86.712 319.683 86.56 319.123 86.4C318.563 86.24 317.995 86.16 317.419 86.16C316.491 86.16 316.027 86.52 316.027 87.24C316.027 87.528 316.163 87.76 316.435 87.936C316.707 88.112 317.043 88.28 317.443 88.44C317.843 88.584 318.283 88.744 318.763 88.92C319.243 89.096 319.683 89.328 320.083 89.616C320.483 89.888 320.819 90.248 321.091 90.696C321.363 91.144 321.499 91.72 321.499 92.424C321.499 93.64 321.107 94.6 320.323 95.304C319.555 95.992 318.395 96.336 316.843 96.336C315.995 96.336 315.195 96.224 314.443 96C313.707 95.792 313.107 95.544 312.643 95.256L313.507 92.928C313.875 93.136 314.363 93.344 314.971 93.552C315.579 93.744 316.203 93.84 316.843 93.84C317.307 93.84 317.675 93.752 317.947 93.576C318.235 93.4 318.379 93.104 318.379 92.688ZM333.136 94.968C332.656 95.352 332 95.68 331.168 95.952C330.352 96.208 329.48 96.336 328.552 96.336C326.616 96.336 325.2 95.776 324.304 94.656C323.408 93.52 322.96 91.968 322.96 90C322.96 87.888 323.464 86.304 324.472 85.248C325.48 84.192 326.896 83.664 328.72 83.664C329.328 83.664 329.92 83.744 330.496 83.904C331.072 84.064 331.584 84.328 332.032 84.696C332.48 85.064 332.84 85.56 333.112 86.184C333.384 86.808 333.52 87.584 333.52 88.512C333.52 88.848 333.496 89.208 333.448 89.592C333.416 89.976 333.36 90.376 333.28 90.792H326.08C326.128 91.8 326.384 92.56 326.848 93.072C327.328 93.584 328.096 93.84 329.152 93.84C329.808 93.84 330.392 93.744 330.904 93.552C331.432 93.344 331.832 93.136 332.104 92.928L333.136 94.968ZM328.672 86.16C327.856 86.16 327.248 86.408 326.848 86.904C326.464 87.384 326.232 88.032 326.152 88.848H330.616C330.68 87.984 330.544 87.32 330.208 86.856C329.888 86.392 329.376 86.16 328.672 86.16ZM342.347 86.928C341.851 86.752 341.403 86.664 341.003 86.664C340.443 86.664 339.971 86.816 339.587 87.12C339.219 87.408 338.971 87.784 338.843 88.248V96H335.723V84H338.147L338.507 85.584H338.603C338.875 84.992 339.243 84.536 339.707 84.216C340.171 83.896 340.715 83.736 341.339 83.736C341.755 83.736 342.227 83.824 342.755 84L342.347 86.928ZM348.29 90.288L348.698 92.136H348.818L349.154 90.24L351.194 84H354.554L349.538 96.12H347.642L342.434 84H346.058L348.29 90.288ZM355.839 84H358.959V96H355.839V84ZM355.383 80.616C355.383 80.152 355.551 79.76 355.887 79.44C356.239 79.104 356.719 78.936 357.327 78.936C357.935 78.936 358.423 79.104 358.791 79.44C359.175 79.76 359.367 80.152 359.367 80.616C359.367 81.08 359.175 81.472 358.791 81.792C358.423 82.096 357.935 82.248 357.327 82.248C356.719 82.248 356.239 82.096 355.887 81.792C355.551 81.472 355.383 81.08 355.383 80.616ZM370.516 95.256C370.036 95.608 369.452 95.872 368.764 96.048C368.092 96.24 367.396 96.336 366.676 96.336C365.716 96.336 364.9 96.184 364.228 95.88C363.572 95.576 363.036 95.152 362.62 94.608C362.204 94.048 361.9 93.376 361.708 92.592C361.532 91.808 361.444 90.944 361.444 90C361.444 87.968 361.9 86.408 362.812 85.32C363.724 84.216 365.052 83.664 366.796 83.664C367.676 83.664 368.38 83.736 368.908 83.88C369.452 84.024 369.94 84.208 370.372 84.432L369.628 86.976C369.26 86.8 368.892 86.664 368.524 86.568C368.172 86.472 367.764 86.424 367.3 86.424C366.436 86.424 365.78 86.712 365.332 87.288C364.884 87.848 364.66 88.752 364.66 90C364.66 90.512 364.716 90.984 364.828 91.416C364.94 91.848 365.108 92.224 365.332 92.544C365.556 92.864 365.844 93.12 366.196 93.312C366.564 93.488 366.988 93.576 367.468 93.576C367.996 93.576 368.444 93.512 368.812 93.384C369.18 93.24 369.508 93.072 369.796 92.88L370.516 95.256ZM381.605 94.968C381.125 95.352 380.469 95.68 379.637 95.952C378.821 96.208 377.949 96.336 377.021 96.336C375.085 96.336 373.669 95.776 372.773 94.656C371.877 93.52 371.429 91.968 371.429 90C371.429 87.888 371.933 86.304 372.941 85.248C373.949 84.192 375.365 83.664 377.189 83.664C377.797 83.664 378.389 83.744 378.965 83.904C379.541 84.064 380.053 84.328 380.501 84.696C380.949 85.064 381.309 85.56 381.581 86.184C381.853 86.808 381.989 87.584 381.989 88.512C381.989 88.848 381.965 89.208 381.917 89.592C381.885 89.976 381.829 90.376 381.749 90.792H374.549C374.597 91.8 374.853 92.56 375.317 93.072C375.797 93.584 376.565 93.84 377.621 93.84C378.277 93.84 378.861 93.744 379.373 93.552C379.901 93.344 380.301 93.136 380.573 92.928L381.605 94.968ZM377.141 86.16C376.325 86.16 375.717 86.408 375.317 86.904C374.933 87.384 374.701 88.032 374.621 88.848H379.085C379.149 87.984 379.013 87.32 378.677 86.856C378.357 86.392 377.845 86.16 377.141 86.16ZM389.16 92.688C389.16 92.368 389.024 92.112 388.752 91.92C388.48 91.728 388.144 91.552 387.744 91.392C387.344 91.232 386.904 91.072 386.424 90.912C385.944 90.736 385.504 90.504 385.104 90.216C384.704 89.912 384.368 89.536 384.096 89.088C383.824 88.624 383.688 88.032 383.688 87.312C383.688 86.128 384.04 85.224 384.744 84.6C385.448 83.976 386.464 83.664 387.792 83.664C388.704 83.664 389.528 83.76 390.264 83.952C391 84.144 391.576 84.36 391.992 84.6L391.296 86.856C390.928 86.712 390.464 86.56 389.904 86.4C389.344 86.24 388.776 86.16 388.2 86.16C387.272 86.16 386.808 86.52 386.808 87.24C386.808 87.528 386.944 87.76 387.216 87.936C387.488 88.112 387.824 88.28 388.224 88.44C388.624 88.584 389.064 88.744 389.544 88.92C390.024 89.096 390.464 89.328 390.864 89.616C391.264 89.888 391.6 90.248 391.872 90.696C392.144 91.144 392.28 91.72 392.28 92.424C392.28 93.64 391.888 94.6 391.104 95.304C390.336 95.992 389.176 96.336 387.624 96.336C386.776 96.336 385.976 96.224 385.224 96C384.488 95.792 383.888 95.544 383.424 95.256L384.288 92.928C384.656 93.136 385.144 93.344 385.752 93.552C386.36 93.744 386.984 93.84 387.624 93.84C388.088 93.84 388.456 93.752 388.728 93.576C389.016 93.4 389.16 93.104 389.16 92.688Z" fill="#333333"/>
<g filter="url(#filter1_d_17_623)">
<circle cx="49.5" cy="45.5" r="45.5" fill="url(#paint0_linear_17_623)"/>
</g>
<path d="M71 24.2501C69.9175 24.2523 68.8623 24.59 67.9797 25.2168C67.0972 25.8437 66.4307 26.7287 66.072 27.7501H60.2515C59.8708 26.2481 59.0002 24.916 57.7774 23.9645C56.5546 23.013 55.0494 22.4963 53.5 22.4963C51.9506 22.4963 50.4454 23.013 49.2226 23.9645C47.9998 24.916 47.1292 26.2481 46.7485 27.7501H39.2515C38.9455 26.5559 38.3289 25.4639 37.4644 24.5851C36.5999 23.7062 35.5182 23.0718 34.3292 22.7463C33.1402 22.4207 31.8862 22.4155 30.6945 22.7313C29.5029 23.0471 28.416 23.6727 27.5443 24.5444C26.6726 25.4161 26.0471 26.5029 25.7313 27.6946C25.4155 28.8862 25.4206 30.1402 25.7462 31.3292C26.0718 32.5182 26.7062 33.5999 27.585 34.4644C28.4639 35.329 29.5558 35.9455 30.75 36.2516V43.7486C29.2481 44.1292 27.916 44.9999 26.9644 46.2227C26.0129 47.4455 25.4963 48.9507 25.4963 50.5001C25.4963 52.0495 26.0129 53.5546 26.9644 54.7775C27.916 56.0003 29.2481 56.8709 30.75 57.2516V63.0721C29.5824 63.4849 28.5983 64.2972 27.9716 65.3654C27.345 66.4336 27.1162 67.689 27.3256 68.9096C27.535 70.1302 28.1692 71.2375 29.1161 72.0358C30.063 72.834 31.2615 73.2718 32.5 73.2718C33.7385 73.2718 34.937 72.834 35.8839 72.0358C36.8308 71.2375 37.465 70.1302 37.6744 68.9096C37.8838 67.689 37.655 66.4336 37.0284 65.3654C36.4017 64.2972 35.4176 63.4849 34.25 63.0721V57.2516C35.3393 56.9692 36.3439 56.427 37.1777 55.6713L43.0647 58.6148C43.0301 58.825 43.0085 59.0372 43 59.2501C42.9952 60.4662 43.4111 61.6466 44.1772 62.5912C44.9433 63.5358 46.0124 64.1863 47.2034 64.4327C48.3944 64.679 49.6339 64.5059 50.7118 63.9427C51.7897 63.3795 52.6397 62.4609 53.1177 61.3426C53.5958 60.2243 53.6724 58.9751 53.3345 57.8068C52.9967 56.6385 52.2653 55.6229 51.2643 54.9323C50.2632 54.2416 49.0542 53.9184 47.842 54.0174C46.6299 54.1163 45.4893 54.6314 44.6135 55.4753L39.1045 52.7208C39.357 52.0072 39.4906 51.257 39.5 50.5001C39.4954 48.9524 38.9775 47.4499 38.0274 46.2282C37.0774 45.0064 35.7488 44.1343 34.25 43.7486V36.2516C35.4531 35.9379 36.5508 35.3091 37.4299 34.43C38.3091 33.5508 38.9379 32.4531 39.2515 31.2501H46.7485C46.9645 32.132 47.3528 32.9626 47.8909 33.6939C48.429 34.4253 49.1064 35.0431 49.8841 35.5118C50.6618 35.9805 51.5244 36.2909 52.4225 36.4251C53.3206 36.5592 54.2363 36.5145 55.117 36.2936L58.2863 41.8411C57.4618 42.7931 57.0011 44.0064 56.9861 45.2658C56.971 46.5251 57.4025 47.7491 58.2039 48.7206C59.0054 49.6921 60.1251 50.3483 61.3643 50.5729C62.6036 50.7974 63.8823 50.5758 64.9737 49.9473C66.0651 49.3188 66.8986 48.324 67.3264 47.1394C67.7542 45.9549 67.7486 44.6571 67.3105 43.4763C66.8725 42.2955 66.0305 41.3079 64.9337 40.6889C63.8369 40.0699 62.5563 39.8593 61.319 40.0946L58.2057 34.6451C59.2018 33.7352 59.9124 32.5558 60.2515 31.2501H66.072C66.3944 32.1551 66.9594 32.9541 67.7051 33.5598C68.4509 34.1655 69.3489 34.5546 70.3008 34.6844C71.2527 34.8143 72.2221 34.68 73.1029 34.2963C73.9837 33.9125 74.742 33.2941 75.2951 32.5085C75.8482 31.7228 76.1746 30.8003 76.2389 29.8417C76.3031 28.8831 76.1026 27.9253 75.6593 27.0729C75.216 26.2205 74.5469 25.5064 73.7252 25.0086C72.9035 24.5107 71.9608 24.2483 71 24.2501ZM36 50.5001C36 51.1923 35.7947 51.869 35.4101 52.4446C35.0256 53.0201 34.4789 53.4687 33.8394 53.7336C33.1998 53.9985 32.4961 54.0679 31.8172 53.9328C31.1382 53.7978 30.5146 53.4644 30.0251 52.9749C29.5356 52.4855 29.2023 51.8618 29.0672 51.1829C28.9322 50.5039 29.0015 49.8002 29.2664 49.1607C29.5313 48.5211 29.9799 47.9745 30.5555 47.5899C31.1311 47.2053 31.8078 47.0001 32.5 47.0001C33.428 47.001 34.3177 47.37 34.9738 48.0262C35.63 48.6824 35.9991 49.5721 36 50.5001ZM32.5 33.0001C31.8078 33.0001 31.1311 32.7948 30.5555 32.4102C29.9799 32.0256 29.5313 31.479 29.2664 30.8395C29.0015 30.1999 28.9322 29.4962 29.0672 28.8172C29.2023 28.1383 29.5356 27.5147 30.0251 27.0252C30.5146 26.5357 31.1382 26.2024 31.8172 26.0673C32.4961 25.9323 33.1998 26.0016 33.8394 26.2665C34.4789 26.5314 35.0256 26.98 35.4101 27.5556C35.7947 28.1311 36 28.8078 36 29.5001C35.9991 30.428 35.63 31.3177 34.9738 31.9739C34.3177 32.6301 33.428 32.9991 32.5 33.0001ZM50 29.5001C50 28.8078 50.2053 28.1311 50.5899 27.5556C50.9744 26.98 51.5211 26.5314 52.1606 26.2665C52.8001 26.0016 53.5039 25.9323 54.1828 26.0673C54.8617 26.2024 55.4854 26.5357 55.9749 27.0252C56.4644 27.5147 56.7977 28.1383 56.9327 28.8172C57.0678 29.4962 56.9985 30.1999 56.7336 30.8395C56.4687 31.479 56.0201 32.0256 55.4445 32.4102C54.8689 32.7948 54.1922 33.0001 53.5 33.0001C52.572 32.9991 51.6823 32.6301 51.0261 31.9739C50.37 31.3177 50.0009 30.428 50 29.5001Z" fill="#333333"/>
<defs>
<filter id="filter0_d_17_623" x="21" y="25" width="439" height="139" filterUnits="userSpaceOnUse" color-interpolation-filters="sRGB">
<feFlood flood-opacity="0" result="BackgroundImageFix"/>
<feColorMatrix in="SourceAlpha" type="matrix" values="0 0 0 0 0 0 0 0 0 0 0 0 0 0 0 0 0 0 127 0" result="hardAlpha"/>
<feOffset dy="6"/>
<feGaussianBlur stdDeviation="7.5"/>
<feComposite in2="hardAlpha" operator="out"/>
<feColorMatrix type="matrix" values="0 0 0 0 0 0 0 0 0 0 0 0 0 0 0 0 0 0 0.25 0"/>
<feBlend mode="normal" in2="BackgroundImageFix" result="effect1_dropShadow_17_623"/>
<feBlend mode="normal" in="SourceGraphic" in2="effect1_dropShadow_17_623" result="shape"/>
</filter>
<filter id="filter1_d_17_623" x="0" y="0" width="99" height="99" filterUnits="userSpaceOnUse" color-interpolation-filters="sRGB">
<feFlood flood-opacity="0" result="BackgroundImageFix"/>
<feColorMatrix in="SourceAlpha" type="matrix" values="0 0 0 0 0 0 0 0 0 0 0 0 0 0 0 0 0 0 127 0" result="hardAlpha"/>
<feOffset dy="4"/>
<feGaussianBlur stdDeviation="2"/>
<feComposite in2="hardAlpha" operator="out"/>
<feColorMatrix type="matrix" values="0 0 0 0 0 0 0 0 0 0 0 0 0 0 0 0 0 0 0.25 0"/>
<feBlend mode="normal" in2="BackgroundImageFix" result="effect1_dropShadow_17_623"/>
<feBlend mode="normal" in="SourceGraphic" in2="effect1_dropShadow_17_623" result="shape"/>
</filter>
<linearGradient id="paint0_linear_17_623" x1="15.5" y1="22" x2="80.5" y2="78" gradientUnits="userSpaceOnUse">
<stop stop-color="#D9E476"/>
<stop offset="1" stop-color="#B0B960"/>
</linearGradient>
</defs>
</svg>
