<svg width="460" height="164" viewBox="0 0 460 164" fill="none" xmlns="http://www.w3.org/2000/svg">
<g filter="url(#filter0_d_64_4)">
<rect x="36" y="34" width="409" height="109" rx="15" fill="#F3F3F3"/>
<rect x="37.5" y="35.5" width="406" height="106" rx="13.5" stroke="#8E964D" stroke-width="3"/>
</g>
<g filter="url(#filter1_d_64_4)">
<circle cx="49.5" cy="45.5" r="45.5" fill="url(#paint0_linear_64_4)"/>
</g>
<path d="M25.8318 77.9564H35.937V67.8658H25.8318V77.9564ZM17.3857 59.4204V67.8658H25.8318V59.4204H17.3857ZM81.3073 36.1544C78.1537 25.9816 70.0093 17.8789 59.8356 14.6845C36.5129 7.40443 15 24.7477 15 46.9854H28.1353C28.1353 33.0285 41.9836 22.2387 56.6683 27.5582C62.1116 29.5187 66.4718 33.8785 68.4325 39.3077C73.7936 53.9775 62.9892 67.7972 49.0449 67.8246V67.8658H49.0038V81C71.2981 81 88.6017 59.5026 81.3073 36.1544V36.1544ZM49.0449 67.8246V54.759H35.937V67.8658H49.0038V67.8246H49.0449Z" fill="#333333"/>
<path d="M150.549 81.2C150.885 81.152 151.261 81.112 151.677 81.08C152.109 81.048 152.549 81.024 152.997 81.008C153.445 80.992 153.877 80.984 154.293 80.984C154.725 80.968 155.109 80.96 155.445 80.96C156.933 80.96 158.205 81.168 159.261 81.584C160.317 82 161.173 82.584 161.829 83.336C162.485 84.088 162.965 84.984 163.269 86.024C163.573 87.064 163.725 88.208 163.725 89.456C163.725 90.592 163.581 91.688 163.293 92.744C163.005 93.8 162.525 94.736 161.853 95.552C161.181 96.368 160.293 97.024 159.189 97.52C158.101 98.016 156.749 98.264 155.133 98.264C154.877 98.264 154.533 98.256 154.101 98.24C153.685 98.224 153.245 98.2 152.781 98.168C152.333 98.152 151.901 98.128 151.485 98.096C151.069 98.08 150.757 98.056 150.549 98.024V81.2ZM155.709 83.888C155.357 83.888 154.997 83.896 154.629 83.912C154.277 83.928 154.013 83.952 153.837 83.984V95.24C153.901 95.256 154.005 95.272 154.149 95.288C154.309 95.288 154.477 95.296 154.653 95.312C154.829 95.312 154.997 95.32 155.157 95.336C155.317 95.336 155.437 95.336 155.517 95.336C156.445 95.336 157.213 95.176 157.821 94.856C158.445 94.52 158.933 94.08 159.285 93.536C159.653 92.992 159.909 92.368 160.053 91.664C160.197 90.944 160.269 90.208 160.269 89.456C160.269 88.8 160.205 88.144 160.077 87.488C159.949 86.816 159.709 86.216 159.357 85.688C159.021 85.16 158.557 84.728 157.965 84.392C157.373 84.056 156.621 83.888 155.709 83.888ZM166.28 86H169.4V98H166.28V86ZM165.824 82.616C165.824 82.152 165.992 81.76 166.328 81.44C166.68 81.104 167.16 80.936 167.768 80.936C168.376 80.936 168.864 81.104 169.232 81.44C169.616 81.76 169.808 82.152 169.808 82.616C169.808 83.08 169.616 83.472 169.232 83.792C168.864 84.096 168.376 84.248 167.768 84.248C167.16 84.248 166.68 84.096 166.328 83.792C165.992 83.472 165.824 83.08 165.824 82.616ZM182.614 98C182.614 99.744 182.142 101.024 181.198 101.84C180.254 102.672 178.934 103.088 177.238 103.088C176.086 103.088 175.174 103.008 174.502 102.848C173.846 102.688 173.35 102.52 173.014 102.344L173.662 99.872C174.03 100.016 174.454 100.16 174.934 100.304C175.43 100.448 176.038 100.52 176.758 100.52C177.846 100.52 178.582 100.28 178.966 99.8C179.366 99.336 179.566 98.68 179.566 97.832V97.064H179.47C178.91 97.816 177.918 98.192 176.494 98.192C174.942 98.192 173.782 97.712 173.014 96.752C172.262 95.792 171.886 94.288 171.886 92.24C171.886 90.096 172.398 88.472 173.422 87.368C174.446 86.264 175.934 85.712 177.886 85.712C178.91 85.712 179.822 85.784 180.622 85.928C181.438 86.072 182.102 86.24 182.614 86.432V98ZM177.334 95.696C177.942 95.696 178.406 95.56 178.726 95.288C179.062 95.016 179.318 94.608 179.494 94.064V88.664C178.998 88.456 178.382 88.352 177.646 88.352C176.846 88.352 176.222 88.656 175.774 89.264C175.326 89.856 175.102 90.808 175.102 92.12C175.102 93.288 175.294 94.176 175.678 94.784C176.062 95.392 176.614 95.696 177.334 95.696ZM185.593 86H188.713V98H185.593V86ZM185.137 82.616C185.137 82.152 185.305 81.76 185.641 81.44C185.993 81.104 186.473 80.936 187.081 80.936C187.689 80.936 188.177 81.104 188.545 81.44C188.929 81.76 189.121 82.152 189.121 82.616C189.121 83.08 188.929 83.472 188.545 83.792C188.177 84.096 187.689 84.248 187.081 84.248C186.473 84.248 185.993 84.096 185.641 83.792C185.305 83.472 185.137 83.08 185.137 82.616ZM190.526 86H192.182V83.744L195.302 82.856V86H198.23V88.64H195.302V93.248C195.302 94.08 195.382 94.68 195.542 95.048C195.718 95.4 196.038 95.576 196.502 95.576C196.822 95.576 197.094 95.544 197.318 95.48C197.558 95.416 197.822 95.32 198.11 95.192L198.662 97.592C198.23 97.8 197.726 97.976 197.15 98.12C196.574 98.264 195.99 98.336 195.398 98.336C194.294 98.336 193.478 98.056 192.95 97.496C192.438 96.92 192.182 95.984 192.182 94.688V88.64H190.526V86ZM200.069 86.696C200.709 86.408 201.469 86.184 202.349 86.024C203.229 85.848 204.149 85.76 205.109 85.76C205.941 85.76 206.637 85.864 207.197 86.072C207.757 86.264 208.197 86.544 208.517 86.912C208.853 87.28 209.085 87.72 209.213 88.232C209.357 88.744 209.429 89.32 209.429 89.96C209.429 90.664 209.405 91.376 209.357 92.096C209.309 92.8 209.277 93.496 209.261 94.184C209.261 94.872 209.285 95.544 209.333 96.2C209.381 96.84 209.501 97.448 209.693 98.024H207.149L206.645 96.368H206.525C206.205 96.864 205.757 97.296 205.181 97.664C204.621 98.016 203.893 98.192 202.997 98.192C202.437 98.192 201.933 98.112 201.485 97.952C201.037 97.776 200.653 97.536 200.333 97.232C200.013 96.912 199.765 96.544 199.589 96.128C199.413 95.696 199.325 95.216 199.325 94.688C199.325 93.952 199.485 93.336 199.805 92.84C200.141 92.328 200.613 91.92 201.221 91.616C201.845 91.296 202.581 91.08 203.429 90.968C204.293 90.84 205.253 90.8 206.309 90.848C206.421 89.952 206.357 89.312 206.117 88.928C205.877 88.528 205.341 88.328 204.509 88.328C203.885 88.328 203.221 88.392 202.517 88.52C201.829 88.648 201.261 88.816 200.813 89.024L200.069 86.696ZM204.029 95.624C204.653 95.624 205.149 95.488 205.517 95.216C205.885 94.928 206.157 94.624 206.333 94.304V92.744C205.837 92.696 205.357 92.688 204.893 92.72C204.445 92.752 204.045 92.824 203.693 92.936C203.341 93.048 203.061 93.208 202.853 93.416C202.645 93.624 202.541 93.888 202.541 94.208C202.541 94.656 202.669 95.008 202.925 95.264C203.197 95.504 203.565 95.624 204.029 95.624ZM215.264 93.968C215.264 94.528 215.336 94.936 215.48 95.192C215.624 95.448 215.856 95.576 216.176 95.576C216.368 95.576 216.552 95.56 216.728 95.528C216.92 95.496 217.152 95.424 217.424 95.312L217.76 97.76C217.504 97.888 217.112 98.016 216.584 98.144C216.056 98.272 215.512 98.336 214.952 98.336C214.04 98.336 213.344 98.128 212.864 97.712C212.384 97.28 212.144 96.576 212.144 95.6V81.2H215.264V93.968ZM231.989 98V91.472C231.989 90.368 231.885 89.584 231.677 89.12C231.469 88.656 231.037 88.424 230.381 88.424C229.837 88.424 229.397 88.576 229.061 88.88C228.725 89.168 228.469 89.544 228.293 90.008V98H225.173V86H227.597L227.957 87.584H228.053C228.421 87.072 228.885 86.624 229.445 86.24C230.021 85.856 230.757 85.664 231.653 85.664C232.421 85.664 233.045 85.824 233.525 86.144C234.021 86.448 234.405 86.968 234.677 87.704C235.045 87.08 235.517 86.584 236.093 86.216C236.669 85.848 237.365 85.664 238.181 85.664C238.853 85.664 239.421 85.744 239.885 85.904C240.365 86.064 240.749 86.344 241.037 86.744C241.341 87.128 241.565 87.648 241.709 88.304C241.853 88.96 241.925 89.792 241.925 90.8V98H238.805V91.256C238.805 90.312 238.701 89.608 238.493 89.144C238.301 88.664 237.861 88.424 237.173 88.424C236.613 88.424 236.165 88.576 235.829 88.88C235.509 89.184 235.269 89.6 235.109 90.128V98H231.989ZM244.413 86.696C245.053 86.408 245.813 86.184 246.693 86.024C247.573 85.848 248.493 85.76 249.453 85.76C250.285 85.76 250.981 85.864 251.541 86.072C252.101 86.264 252.541 86.544 252.861 86.912C253.197 87.28 253.429 87.72 253.557 88.232C253.701 88.744 253.773 89.32 253.773 89.96C253.773 90.664 253.749 91.376 253.701 92.096C253.653 92.8 253.621 93.496 253.605 94.184C253.605 94.872 253.629 95.544 253.677 96.2C253.725 96.84 253.845 97.448 254.037 98.024H251.493L250.989 96.368H250.869C250.549 96.864 250.101 97.296 249.525 97.664C248.965 98.016 248.237 98.192 247.341 98.192C246.781 98.192 246.277 98.112 245.829 97.952C245.381 97.776 244.997 97.536 244.677 97.232C244.357 96.912 244.109 96.544 243.933 96.128C243.757 95.696 243.669 95.216 243.669 94.688C243.669 93.952 243.829 93.336 244.149 92.84C244.485 92.328 244.957 91.92 245.565 91.616C246.189 91.296 246.925 91.08 247.773 90.968C248.637 90.84 249.597 90.8 250.653 90.848C250.765 89.952 250.701 89.312 250.461 88.928C250.221 88.528 249.685 88.328 248.853 88.328C248.229 88.328 247.565 88.392 246.861 88.52C246.173 88.648 245.605 88.816 245.157 89.024L244.413 86.696ZM248.373 95.624C248.997 95.624 249.493 95.488 249.861 95.216C250.229 94.928 250.501 94.624 250.677 94.304V92.744C250.181 92.696 249.701 92.688 249.237 92.72C248.789 92.752 248.389 92.824 248.037 92.936C247.685 93.048 247.405 93.208 247.197 93.416C246.989 93.624 246.885 93.888 246.885 94.208C246.885 94.656 247.013 95.008 247.269 95.264C247.541 95.504 247.909 95.624 248.373 95.624ZM263.015 88.928C262.519 88.752 262.071 88.664 261.671 88.664C261.111 88.664 260.639 88.816 260.255 89.12C259.887 89.408 259.639 89.784 259.511 90.248V98H256.391V86H258.815L259.175 87.584H259.271C259.543 86.992 259.911 86.536 260.375 86.216C260.839 85.896 261.383 85.736 262.007 85.736C262.423 85.736 262.895 85.824 263.423 86L263.015 88.928ZM268.766 93.032H267.926V98H264.806V81.2H267.926V91.112L268.646 90.776L271.382 86H274.814L271.934 90.56L270.71 91.472L272.03 92.408L275.27 98H271.694L268.766 93.032ZM285.913 96.968C285.433 97.352 284.777 97.68 283.945 97.952C283.129 98.208 282.257 98.336 281.329 98.336C279.393 98.336 277.977 97.776 277.081 96.656C276.185 95.52 275.737 93.968 275.737 92C275.737 89.888 276.241 88.304 277.249 87.248C278.257 86.192 279.673 85.664 281.497 85.664C282.105 85.664 282.697 85.744 283.273 85.904C283.849 86.064 284.361 86.328 284.809 86.696C285.257 87.064 285.617 87.56 285.889 88.184C286.161 88.808 286.297 89.584 286.297 90.512C286.297 90.848 286.273 91.208 286.225 91.592C286.193 91.976 286.137 92.376 286.057 92.792H278.857C278.905 93.8 279.161 94.56 279.625 95.072C280.105 95.584 280.873 95.84 281.929 95.84C282.585 95.84 283.169 95.744 283.681 95.552C284.209 95.344 284.609 95.136 284.881 94.928L285.913 96.968ZM281.449 88.16C280.633 88.16 280.025 88.408 279.625 88.904C279.241 89.384 279.009 90.032 278.929 90.848H283.393C283.457 89.984 283.321 89.32 282.985 88.856C282.665 88.392 282.153 88.16 281.449 88.16ZM287.253 86H288.909V83.744L292.029 82.856V86H294.957V88.64H292.029V93.248C292.029 94.08 292.109 94.68 292.269 95.048C292.445 95.4 292.765 95.576 293.229 95.576C293.549 95.576 293.821 95.544 294.045 95.48C294.285 95.416 294.549 95.32 294.837 95.192L295.389 97.592C294.957 97.8 294.453 97.976 293.877 98.12C293.301 98.264 292.717 98.336 292.125 98.336C291.021 98.336 290.205 98.056 289.677 97.496C289.165 96.92 288.909 95.984 288.909 94.688V88.64H287.253V86ZM297.132 86H300.252V98H297.132V86ZM296.676 82.616C296.676 82.152 296.844 81.76 297.18 81.44C297.532 81.104 298.012 80.936 298.62 80.936C299.228 80.936 299.716 81.104 300.084 81.44C300.468 81.76 300.66 82.152 300.66 82.616C300.66 83.08 300.468 83.472 300.084 83.792C299.716 84.096 299.228 84.248 298.62 84.248C298.012 84.248 297.532 84.096 297.18 83.792C296.844 83.472 296.676 83.08 296.676 82.616ZM310.657 98V91.184C310.657 90.208 310.513 89.504 310.225 89.072C309.953 88.64 309.481 88.424 308.809 88.424C308.217 88.424 307.713 88.6 307.297 88.952C306.897 89.288 306.609 89.712 306.433 90.224V98H303.313V86H305.785L306.145 87.584H306.241C306.609 87.072 307.097 86.624 307.705 86.24C308.313 85.856 309.097 85.664 310.057 85.664C310.649 85.664 311.177 85.744 311.641 85.904C312.105 86.064 312.497 86.328 312.817 86.696C313.137 87.064 313.377 87.568 313.537 88.208C313.697 88.832 313.777 89.608 313.777 90.536V98H310.657ZM326.543 98C326.543 99.744 326.071 101.024 325.127 101.84C324.183 102.672 322.863 103.088 321.167 103.088C320.015 103.088 319.103 103.008 318.431 102.848C317.775 102.688 317.279 102.52 316.943 102.344L317.591 99.872C317.959 100.016 318.383 100.16 318.863 100.304C319.359 100.448 319.967 100.52 320.687 100.52C321.775 100.52 322.511 100.28 322.895 99.8C323.295 99.336 323.495 98.68 323.495 97.832V97.064H323.399C322.839 97.816 321.847 98.192 320.423 98.192C318.871 98.192 317.711 97.712 316.943 96.752C316.191 95.792 315.815 94.288 315.815 92.24C315.815 90.096 316.327 88.472 317.351 87.368C318.375 86.264 319.863 85.712 321.815 85.712C322.839 85.712 323.751 85.784 324.551 85.928C325.367 86.072 326.031 86.24 326.543 86.432V98ZM321.263 95.696C321.871 95.696 322.335 95.56 322.655 95.288C322.991 95.016 323.247 94.608 323.423 94.064V88.664C322.927 88.456 322.311 88.352 321.575 88.352C320.775 88.352 320.151 88.656 319.703 89.264C319.255 89.856 319.031 90.808 319.031 92.12C319.031 93.288 319.223 94.176 319.607 94.784C319.991 95.392 320.543 95.696 321.263 95.696Z" fill="#333333"/>
<defs>
<filter id="filter0_d_64_4" x="21" y="25" width="439" height="139" filterUnits="userSpaceOnUse" color-interpolation-filters="sRGB">
<feFlood flood-opacity="0" result="BackgroundImageFix"/>
<feColorMatrix in="SourceAlpha" type="matrix" values="0 0 0 0 0 0 0 0 0 0 0 0 0 0 0 0 0 0 127 0" result="hardAlpha"/>
<feOffset dy="6"/>
<feGaussianBlur stdDeviation="7.5"/>
<feComposite in2="hardAlpha" operator="out"/>
<feColorMatrix type="matrix" values="0 0 0 0 0 0 0 0 0 0 0 0 0 0 0 0 0 0 0.25 0"/>
<feBlend mode="normal" in2="BackgroundImageFix" result="effect1_dropShadow_64_4"/>
<feBlend mode="normal" in="SourceGraphic" in2="effect1_dropShadow_64_4" result="shape"/>
</filter>
<filter id="filter1_d_64_4" x="0" y="0" width="99" height="99" filterUnits="userSpaceOnUse" color-interpolation-filters="sRGB">
<feFlood flood-opacity="0" result="BackgroundImageFix"/>
<feColorMatrix in="SourceAlpha" type="matrix" values="0 0 0 0 0 0 0 0 0 0 0 0 0 0 0 0 0 0 127 0" result="hardAlpha"/>
<feOffset dy="4"/>
<feGaussianBlur stdDeviation="2"/>
<feComposite in2="hardAlpha" operator="out"/>
<feColorMatrix type="matrix" values="0 0 0 0 0 0 0 0 0 0 0 0 0 0 0 0 0 0 0.25 0"/>
<feBlend mode="normal" in2="BackgroundImageFix" result="effect1_dropShadow_64_4"/>
<feBlend mode="normal" in="SourceGraphic" in2="effect1_dropShadow_64_4" result="shape"/>
</filter>
<linearGradient id="paint0_linear_64_4" x1="15.5" y1="22" x2="80.5" y2="78" gradientUnits="userSpaceOnUse">
<stop stop-color="#D9E476"/>
<stop offset="1" stop-color="#B0B960"/>
</linearGradient>
</defs>
</svg>
