<svg width="460" height="164" viewBox="0 0 460 164" fill="none" xmlns="http://www.w3.org/2000/svg">
<g filter="url(#filter0_d_64_5)">
<rect x="36" y="34" width="409" height="109" rx="15" fill="#F3F3F3"/>
<rect x="37.5" y="35.5" width="406" height="106" rx="13.5" stroke="#8E964D" stroke-width="3"/>
</g>
<g filter="url(#filter1_d_64_5)">
<circle cx="49.5" cy="45.5" r="45.5" fill="url(#paint0_linear_64_5)"/>
</g>
<path d="M61.7917 61.25H37.2083V31.75H61.7917V34.2084H66.7083V24.375C66.7083 21.6709 64.4958 19.4584 61.7917 19.4584H37.2083C34.5042 19.4584 32.2917 21.6709 32.2917 24.375V68.625C32.2917 71.3292 34.5042 73.5417 37.2083 73.5417H61.7917C64.4958 73.5417 66.7083 71.3292 66.7083 68.625V58.7917H61.7917V61.25ZM37.2083 24.375H61.7917V26.8334H37.2083V24.375ZM61.7917 68.625H37.2083V66.1667H61.7917V68.625ZM70.1008 40.6492L71.625 44.0417L73.1492 40.6492L76.5417 39.125L73.1492 37.6009L71.625 34.2084L70.1008 37.6009L66.7083 39.125L70.1008 40.6492Z" fill="#333333"/>
<path d="M59.3333 36.6666L56.2604 43.427L49.5 46.5L56.2604 49.5729L59.3333 56.3333L62.4062 49.5729L69.1667 46.5L62.4062 43.427L59.3333 36.6666ZM71.625 48.9583L70.1008 52.3508L66.7083 53.875L70.1008 55.3991L71.625 58.7916L73.1492 55.3991L76.5417 53.875L73.1492 52.3508L71.625 48.9583Z" fill="#333333"/>
<path d="M120.038 81.2H129.998V84.128H123.326V88.04H129.398V90.968H123.326V95.072H130.118V98H120.038V81.2ZM132.577 81.368C132.945 81.304 133.337 81.248 133.753 81.2C134.185 81.136 134.609 81.088 135.025 81.056C135.457 81.024 135.873 81 136.273 80.984C136.673 80.968 137.041 80.96 137.377 80.96C138.161 80.96 138.929 81.032 139.681 81.176C140.449 81.32 141.129 81.568 141.721 81.92C142.329 82.272 142.809 82.76 143.161 83.384C143.529 83.992 143.713 84.76 143.713 85.688C143.713 87.064 143.393 88.184 142.753 89.048C142.113 89.912 141.257 90.512 140.185 90.848L141.361 91.592L145.201 98H141.409L137.593 91.424L135.865 91.112V98H132.577V81.368ZM137.617 83.888C137.281 83.888 136.945 83.896 136.609 83.912C136.289 83.928 136.041 83.96 135.865 84.008V88.88H137.257C138.169 88.88 138.897 88.672 139.441 88.256C139.985 87.84 140.257 87.152 140.257 86.192C140.257 85.472 140.033 84.912 139.585 84.512C139.137 84.096 138.481 83.888 137.617 83.888ZM147.014 81.368C147.686 81.24 148.422 81.144 149.222 81.08C150.038 81 150.846 80.96 151.646 80.96C152.478 80.96 153.31 81.032 154.142 81.176C154.99 81.304 155.75 81.576 156.422 81.992C157.094 82.392 157.638 82.96 158.054 83.696C158.486 84.416 158.702 85.36 158.702 86.528C158.702 87.584 158.518 88.48 158.15 89.216C157.782 89.936 157.294 90.528 156.686 90.992C156.078 91.456 155.382 91.792 154.598 92C153.83 92.208 153.03 92.312 152.198 92.312C152.118 92.312 151.99 92.312 151.814 92.312C151.638 92.312 151.454 92.312 151.262 92.312C151.07 92.296 150.878 92.28 150.686 92.264C150.51 92.248 150.382 92.232 150.302 92.216V98H147.014V81.368ZM151.91 83.792C151.59 83.792 151.286 83.808 150.998 83.84C150.71 83.856 150.478 83.88 150.302 83.912V89.36C150.366 89.376 150.462 89.392 150.59 89.408C150.718 89.424 150.854 89.44 150.998 89.456C151.142 89.456 151.278 89.456 151.406 89.456C151.55 89.456 151.654 89.456 151.718 89.456C152.15 89.456 152.574 89.416 152.99 89.336C153.422 89.256 153.806 89.112 154.142 88.904C154.478 88.68 154.742 88.376 154.934 87.992C155.142 87.608 155.246 87.104 155.246 86.48C155.246 85.952 155.15 85.52 154.958 85.184C154.766 84.832 154.51 84.552 154.19 84.344C153.886 84.136 153.534 83.992 153.134 83.912C152.734 83.832 152.326 83.792 151.91 83.792ZM165.714 86.696C166.354 86.408 167.114 86.184 167.994 86.024C168.874 85.848 169.794 85.76 170.754 85.76C171.586 85.76 172.282 85.864 172.842 86.072C173.402 86.264 173.842 86.544 174.162 86.912C174.498 87.28 174.73 87.72 174.858 88.232C175.002 88.744 175.074 89.32 175.074 89.96C175.074 90.664 175.05 91.376 175.002 92.096C174.954 92.8 174.922 93.496 174.906 94.184C174.906 94.872 174.93 95.544 174.978 96.2C175.026 96.84 175.146 97.448 175.338 98.024H172.794L172.29 96.368H172.17C171.85 96.864 171.402 97.296 170.826 97.664C170.266 98.016 169.538 98.192 168.642 98.192C168.082 98.192 167.578 98.112 167.13 97.952C166.682 97.776 166.298 97.536 165.978 97.232C165.658 96.912 165.41 96.544 165.234 96.128C165.058 95.696 164.97 95.216 164.97 94.688C164.97 93.952 165.13 93.336 165.45 92.84C165.786 92.328 166.258 91.92 166.866 91.616C167.49 91.296 168.226 91.08 169.074 90.968C169.938 90.84 170.898 90.8 171.954 90.848C172.066 89.952 172.002 89.312 171.762 88.928C171.522 88.528 170.986 88.328 170.154 88.328C169.53 88.328 168.866 88.392 168.162 88.52C167.474 88.648 166.906 88.816 166.458 89.024L165.714 86.696ZM169.674 95.624C170.298 95.624 170.794 95.488 171.162 95.216C171.53 94.928 171.802 94.624 171.978 94.304V92.744C171.482 92.696 171.002 92.688 170.538 92.72C170.09 92.752 169.69 92.824 169.338 92.936C168.986 93.048 168.706 93.208 168.498 93.416C168.29 93.624 168.186 93.888 168.186 94.208C168.186 94.656 168.314 95.008 168.57 95.264C168.842 95.504 169.21 95.624 169.674 95.624ZM185.036 98V91.184C185.036 90.208 184.892 89.504 184.604 89.072C184.332 88.64 183.86 88.424 183.188 88.424C182.596 88.424 182.092 88.6 181.676 88.952C181.276 89.288 180.988 89.712 180.812 90.224V98H177.692V86H180.164L180.524 87.584H180.62C180.988 87.072 181.476 86.624 182.084 86.24C182.692 85.856 183.476 85.664 184.436 85.664C185.028 85.664 185.556 85.744 186.02 85.904C186.484 86.064 186.876 86.328 187.196 86.696C187.516 87.064 187.756 87.568 187.916 88.208C188.076 88.832 188.156 89.608 188.156 90.536V98H185.036ZM200.97 93.776C200.97 94.448 200.978 95.12 200.994 95.792C201.01 96.464 201.082 97.208 201.21 98.024H198.978L198.546 96.464H198.45C198.13 97.024 197.666 97.48 197.058 97.832C196.466 98.168 195.762 98.336 194.946 98.336C193.442 98.336 192.274 97.84 191.442 96.848C190.61 95.856 190.194 94.304 190.194 92.192C190.194 90.144 190.658 88.552 191.586 87.416C192.514 86.28 193.874 85.712 195.666 85.712C196.162 85.712 196.57 85.744 196.89 85.808C197.21 85.856 197.53 85.944 197.85 86.072V81.2H200.97V93.776ZM195.666 95.696C196.274 95.696 196.754 95.552 197.106 95.264C197.458 94.96 197.706 94.528 197.85 93.968V88.88C197.626 88.704 197.378 88.576 197.106 88.496C196.834 88.4 196.482 88.352 196.05 88.352C195.17 88.352 194.506 88.648 194.058 89.24C193.626 89.832 193.41 90.848 193.41 92.288C193.41 93.312 193.586 94.136 193.938 94.76C194.306 95.384 194.882 95.696 195.666 95.696ZM214.746 94.688C214.746 94.368 214.61 94.112 214.338 93.92C214.066 93.728 213.73 93.552 213.33 93.392C212.93 93.232 212.49 93.072 212.01 92.912C211.53 92.736 211.09 92.504 210.69 92.216C210.29 91.912 209.954 91.536 209.682 91.088C209.41 90.624 209.274 90.032 209.274 89.312C209.274 88.128 209.626 87.224 210.33 86.6C211.034 85.976 212.05 85.664 213.378 85.664C214.29 85.664 215.114 85.76 215.85 85.952C216.586 86.144 217.162 86.36 217.578 86.6L216.882 88.856C216.514 88.712 216.05 88.56 215.49 88.4C214.93 88.24 214.362 88.16 213.786 88.16C212.858 88.16 212.394 88.52 212.394 89.24C212.394 89.528 212.53 89.76 212.802 89.936C213.074 90.112 213.41 90.28 213.81 90.44C214.21 90.584 214.65 90.744 215.13 90.92C215.61 91.096 216.05 91.328 216.45 91.616C216.85 91.888 217.186 92.248 217.458 92.696C217.73 93.144 217.866 93.72 217.866 94.424C217.866 95.64 217.474 96.6 216.69 97.304C215.922 97.992 214.762 98.336 213.21 98.336C212.362 98.336 211.562 98.224 210.81 98C210.074 97.792 209.474 97.544 209.01 97.256L209.874 94.928C210.242 95.136 210.73 95.344 211.338 95.552C211.946 95.744 212.57 95.84 213.21 95.84C213.674 95.84 214.042 95.752 214.314 95.576C214.602 95.4 214.746 95.104 214.746 94.688ZM219.327 92C219.327 89.968 219.823 88.408 220.815 87.32C221.807 86.216 223.199 85.664 224.991 85.664C225.951 85.664 226.783 85.816 227.487 86.12C228.191 86.424 228.775 86.856 229.239 87.416C229.703 87.96 230.047 88.624 230.271 89.408C230.511 90.192 230.631 91.056 230.631 92C230.631 94.032 230.135 95.6 229.143 96.704C228.167 97.792 226.783 98.336 224.991 98.336C224.031 98.336 223.199 98.184 222.495 97.88C221.791 97.576 221.199 97.152 220.719 96.608C220.255 96.048 219.903 95.376 219.663 94.592C219.439 93.808 219.327 92.944 219.327 92ZM222.543 92C222.543 92.528 222.591 93.016 222.687 93.464C222.783 93.912 222.927 94.304 223.119 94.64C223.311 94.976 223.559 95.24 223.863 95.432C224.183 95.608 224.559 95.696 224.991 95.696C225.807 95.696 226.415 95.4 226.815 94.808C227.215 94.216 227.415 93.28 227.415 92C227.415 90.896 227.231 90.008 226.863 89.336C226.495 88.648 225.871 88.304 224.991 88.304C224.223 88.304 223.623 88.592 223.191 89.168C222.759 89.744 222.543 90.688 222.543 92ZM231.409 86H233.065V85.328C233.065 83.808 233.385 82.712 234.025 82.04C234.665 81.352 235.593 81.008 236.809 81.008C238.089 81.008 239.153 81.16 240.001 81.464L239.401 83.96C239.033 83.832 238.705 83.752 238.417 83.72C238.145 83.672 237.857 83.648 237.553 83.648C237.233 83.648 236.977 83.696 236.785 83.792C236.609 83.888 236.473 84.04 236.377 84.248C236.297 84.44 236.241 84.688 236.209 84.992C236.193 85.28 236.185 85.616 236.185 86H238.825V88.64H236.185V98H233.065V88.64H231.409V86ZM238.788 86H240.444V83.744L243.564 82.856V86H246.492V88.64H243.564V93.248C243.564 94.08 243.644 94.68 243.804 95.048C243.98 95.4 244.3 95.576 244.764 95.576C245.084 95.576 245.356 95.544 245.58 95.48C245.82 95.416 246.084 95.32 246.372 95.192L246.924 97.592C246.492 97.8 245.988 97.976 245.412 98.12C244.836 98.264 244.252 98.336 243.66 98.336C242.556 98.336 241.74 98.056 241.212 97.496C240.7 96.92 240.444 95.984 240.444 94.688V88.64H238.788V86ZM256.693 86L258.877 92.144L259.309 94.136H259.405L259.741 92.12L261.277 86H264.133L260.437 98.12H258.133L255.709 91.4L255.397 89.888H255.277L254.989 91.424L252.685 98.12H250.309L246.445 86H249.829L251.581 92.024L251.869 94.16H251.989L252.397 92L254.389 86H256.693ZM265.23 86.696C265.87 86.408 266.63 86.184 267.51 86.024C268.39 85.848 269.31 85.76 270.27 85.76C271.102 85.76 271.798 85.864 272.358 86.072C272.918 86.264 273.358 86.544 273.678 86.912C274.014 87.28 274.246 87.72 274.374 88.232C274.518 88.744 274.59 89.32 274.59 89.96C274.59 90.664 274.566 91.376 274.518 92.096C274.47 92.8 274.438 93.496 274.422 94.184C274.422 94.872 274.446 95.544 274.494 96.2C274.542 96.84 274.662 97.448 274.854 98.024H272.31L271.806 96.368H271.686C271.366 96.864 270.918 97.296 270.342 97.664C269.782 98.016 269.054 98.192 268.158 98.192C267.598 98.192 267.094 98.112 266.646 97.952C266.198 97.776 265.814 97.536 265.494 97.232C265.174 96.912 264.926 96.544 264.75 96.128C264.574 95.696 264.486 95.216 264.486 94.688C264.486 93.952 264.646 93.336 264.966 92.84C265.302 92.328 265.774 91.92 266.382 91.616C267.006 91.296 267.742 91.08 268.59 90.968C269.454 90.84 270.414 90.8 271.47 90.848C271.582 89.952 271.518 89.312 271.278 88.928C271.038 88.528 270.502 88.328 269.67 88.328C269.046 88.328 268.382 88.392 267.678 88.52C266.99 88.648 266.422 88.816 265.974 89.024L265.23 86.696ZM269.19 95.624C269.814 95.624 270.31 95.488 270.678 95.216C271.046 94.928 271.318 94.624 271.494 94.304V92.744C270.998 92.696 270.518 92.688 270.054 92.72C269.606 92.752 269.206 92.824 268.854 92.936C268.502 93.048 268.222 93.208 268.014 93.416C267.806 93.624 267.702 93.888 267.702 94.208C267.702 94.656 267.83 95.008 268.086 95.264C268.358 95.504 268.726 95.624 269.19 95.624ZM283.832 88.928C283.336 88.752 282.888 88.664 282.488 88.664C281.928 88.664 281.456 88.816 281.072 89.12C280.704 89.408 280.456 89.784 280.328 90.248V98H277.208V86H279.632L279.992 87.584H280.088C280.36 86.992 280.728 86.536 281.192 86.216C281.656 85.896 282.2 85.736 282.824 85.736C283.24 85.736 283.712 85.824 284.24 86L283.832 88.928ZM295.222 96.968C294.742 97.352 294.086 97.68 293.254 97.952C292.438 98.208 291.566 98.336 290.638 98.336C288.702 98.336 287.286 97.776 286.39 96.656C285.494 95.52 285.046 93.968 285.046 92C285.046 89.888 285.55 88.304 286.558 87.248C287.566 86.192 288.982 85.664 290.806 85.664C291.414 85.664 292.006 85.744 292.582 85.904C293.158 86.064 293.67 86.328 294.118 86.696C294.566 87.064 294.926 87.56 295.198 88.184C295.47 88.808 295.606 89.584 295.606 90.512C295.606 90.848 295.582 91.208 295.534 91.592C295.502 91.976 295.446 92.376 295.366 92.792H288.166C288.214 93.8 288.47 94.56 288.934 95.072C289.414 95.584 290.182 95.84 291.238 95.84C291.894 95.84 292.478 95.744 292.99 95.552C293.518 95.344 293.918 95.136 294.19 94.928L295.222 96.968ZM290.758 88.16C289.942 88.16 289.334 88.408 288.934 88.904C288.55 89.384 288.318 90.032 288.238 90.848H292.702C292.766 89.984 292.63 89.32 292.294 88.856C291.974 88.392 291.462 88.16 290.758 88.16ZM308.848 94.688C308.848 94.368 308.712 94.112 308.44 93.92C308.168 93.728 307.832 93.552 307.432 93.392C307.032 93.232 306.592 93.072 306.112 92.912C305.632 92.736 305.192 92.504 304.792 92.216C304.392 91.912 304.056 91.536 303.784 91.088C303.512 90.624 303.376 90.032 303.376 89.312C303.376 88.128 303.728 87.224 304.432 86.6C305.136 85.976 306.152 85.664 307.48 85.664C308.392 85.664 309.216 85.76 309.952 85.952C310.688 86.144 311.264 86.36 311.68 86.6L310.984 88.856C310.616 88.712 310.152 88.56 309.592 88.4C309.032 88.24 308.464 88.16 307.888 88.16C306.96 88.16 306.496 88.52 306.496 89.24C306.496 89.528 306.632 89.76 306.904 89.936C307.176 90.112 307.512 90.28 307.912 90.44C308.312 90.584 308.752 90.744 309.232 90.92C309.712 91.096 310.152 91.328 310.552 91.616C310.952 91.888 311.288 92.248 311.56 92.696C311.832 93.144 311.968 93.72 311.968 94.424C311.968 95.64 311.576 96.6 310.792 97.304C310.024 97.992 308.864 98.336 307.312 98.336C306.464 98.336 305.664 98.224 304.912 98C304.176 97.792 303.576 97.544 303.112 97.256L303.976 94.928C304.344 95.136 304.832 95.344 305.44 95.552C306.048 95.744 306.672 95.84 307.312 95.84C307.776 95.84 308.144 95.752 308.416 95.576C308.704 95.4 308.848 95.104 308.848 94.688ZM313.429 92C313.429 89.968 313.925 88.408 314.917 87.32C315.909 86.216 317.301 85.664 319.093 85.664C320.053 85.664 320.885 85.816 321.589 86.12C322.293 86.424 322.877 86.856 323.341 87.416C323.805 87.96 324.149 88.624 324.373 89.408C324.613 90.192 324.733 91.056 324.733 92C324.733 94.032 324.237 95.6 323.245 96.704C322.269 97.792 320.885 98.336 319.093 98.336C318.133 98.336 317.301 98.184 316.597 97.88C315.893 97.576 315.301 97.152 314.821 96.608C314.357 96.048 314.005 95.376 313.765 94.592C313.541 93.808 313.429 92.944 313.429 92ZM316.645 92C316.645 92.528 316.693 93.016 316.789 93.464C316.885 93.912 317.029 94.304 317.221 94.64C317.413 94.976 317.661 95.24 317.965 95.432C318.285 95.608 318.661 95.696 319.093 95.696C319.909 95.696 320.517 95.4 320.917 94.808C321.317 94.216 321.517 93.28 321.517 92C321.517 90.896 321.333 90.008 320.965 89.336C320.597 88.648 319.973 88.304 319.093 88.304C318.325 88.304 317.725 88.592 317.293 89.168C316.861 89.744 316.645 90.688 316.645 92ZM330.111 93.968C330.111 94.528 330.183 94.936 330.327 95.192C330.471 95.448 330.703 95.576 331.023 95.576C331.215 95.576 331.399 95.56 331.575 95.528C331.767 95.496 331.999 95.424 332.271 95.312L332.607 97.76C332.351 97.888 331.959 98.016 331.431 98.144C330.903 98.272 330.359 98.336 329.799 98.336C328.887 98.336 328.191 98.128 327.711 97.712C327.231 97.28 326.991 96.576 326.991 95.6V81.2H330.111V93.968ZM336.95 86V92.816C336.95 93.792 337.062 94.496 337.286 94.928C337.526 95.36 337.982 95.576 338.654 95.576C339.246 95.576 339.734 95.4 340.118 95.048C340.518 94.696 340.814 94.264 341.006 93.752V86H344.126V94.352C344.126 95.008 344.158 95.656 344.222 96.296C344.286 96.92 344.382 97.488 344.51 98H342.158L341.606 96.224H341.51C341.142 96.832 340.63 97.336 339.974 97.736C339.318 98.136 338.542 98.336 337.646 98.336C337.038 98.336 336.494 98.256 336.014 98.096C335.534 97.936 335.134 97.672 334.814 97.304C334.494 96.936 334.246 96.44 334.07 95.816C333.91 95.192 333.83 94.408 333.83 93.464V86H336.95ZM345.616 86H347.272V83.744L350.392 82.856V86H353.32V88.64H350.392V93.248C350.392 94.08 350.472 94.68 350.632 95.048C350.808 95.4 351.128 95.576 351.592 95.576C351.912 95.576 352.184 95.544 352.408 95.48C352.648 95.416 352.912 95.32 353.2 95.192L353.752 97.592C353.32 97.8 352.816 97.976 352.24 98.12C351.664 98.264 351.08 98.336 350.488 98.336C349.384 98.336 348.568 98.056 348.04 97.496C347.528 96.92 347.272 95.984 347.272 94.688V88.64H345.616V86ZM355.495 86H358.615V98H355.495V86ZM355.039 82.616C355.039 82.152 355.207 81.76 355.543 81.44C355.895 81.104 356.375 80.936 356.983 80.936C357.591 80.936 358.079 81.104 358.447 81.44C358.831 81.76 359.023 82.152 359.023 82.616C359.023 83.08 358.831 83.472 358.447 83.792C358.079 84.096 357.591 84.248 356.983 84.248C356.375 84.248 355.895 84.096 355.543 83.792C355.207 83.472 355.039 83.08 355.039 82.616ZM361.101 92C361.101 89.968 361.597 88.408 362.589 87.32C363.581 86.216 364.973 85.664 366.765 85.664C367.725 85.664 368.557 85.816 369.261 86.12C369.965 86.424 370.549 86.856 371.013 87.416C371.477 87.96 371.821 88.624 372.045 89.408C372.285 90.192 372.405 91.056 372.405 92C372.405 94.032 371.909 95.6 370.917 96.704C369.941 97.792 368.557 98.336 366.765 98.336C365.805 98.336 364.973 98.184 364.269 97.88C363.565 97.576 362.973 97.152 362.493 96.608C362.029 96.048 361.677 95.376 361.437 94.592C361.213 93.808 361.101 92.944 361.101 92ZM364.317 92C364.317 92.528 364.365 93.016 364.461 93.464C364.557 93.912 364.701 94.304 364.893 94.64C365.085 94.976 365.333 95.24 365.637 95.432C365.957 95.608 366.333 95.696 366.765 95.696C367.581 95.696 368.189 95.4 368.589 94.808C368.989 94.216 369.189 93.28 369.189 92C369.189 90.896 369.005 90.008 368.637 89.336C368.269 88.648 367.645 88.304 366.765 88.304C365.997 88.304 365.397 88.592 364.965 89.168C364.533 89.744 364.317 90.688 364.317 92ZM381.911 98V91.184C381.911 90.208 381.767 89.504 381.479 89.072C381.207 88.64 380.735 88.424 380.063 88.424C379.471 88.424 378.967 88.6 378.551 88.952C378.151 89.288 377.863 89.712 377.687 90.224V98H374.567V86H377.039L377.399 87.584H377.495C377.863 87.072 378.351 86.624 378.959 86.24C379.567 85.856 380.351 85.664 381.311 85.664C381.903 85.664 382.431 85.744 382.895 85.904C383.359 86.064 383.751 86.328 384.071 86.696C384.391 87.064 384.631 87.568 384.791 88.208C384.951 88.832 385.031 89.608 385.031 90.536V98H381.911ZM392.613 94.688C392.613 94.368 392.477 94.112 392.205 93.92C391.933 93.728 391.597 93.552 391.197 93.392C390.797 93.232 390.357 93.072 389.877 92.912C389.397 92.736 388.957 92.504 388.557 92.216C388.157 91.912 387.821 91.536 387.549 91.088C387.277 90.624 387.141 90.032 387.141 89.312C387.141 88.128 387.493 87.224 388.197 86.6C388.901 85.976 389.917 85.664 391.245 85.664C392.157 85.664 392.981 85.76 393.717 85.952C394.453 86.144 395.029 86.36 395.445 86.6L394.749 88.856C394.381 88.712 393.917 88.56 393.357 88.4C392.797 88.24 392.229 88.16 391.653 88.16C390.725 88.16 390.261 88.52 390.261 89.24C390.261 89.528 390.397 89.76 390.669 89.936C390.941 90.112 391.277 90.28 391.677 90.44C392.077 90.584 392.517 90.744 392.997 90.92C393.477 91.096 393.917 91.328 394.317 91.616C394.717 91.888 395.053 92.248 395.325 92.696C395.597 93.144 395.733 93.72 395.733 94.424C395.733 95.64 395.341 96.6 394.557 97.304C393.789 97.992 392.629 98.336 391.077 98.336C390.229 98.336 389.429 98.224 388.677 98C387.941 97.792 387.341 97.544 386.877 97.256L387.741 94.928C388.109 95.136 388.597 95.344 389.205 95.552C389.813 95.744 390.437 95.84 391.077 95.84C391.541 95.84 391.909 95.752 392.181 95.576C392.469 95.4 392.613 95.104 392.613 94.688Z" fill="#333333"/>
<defs>
<filter id="filter0_d_64_5" x="21" y="25" width="439" height="139" filterUnits="userSpaceOnUse" color-interpolation-filters="sRGB">
<feFlood flood-opacity="0" result="BackgroundImageFix"/>
<feColorMatrix in="SourceAlpha" type="matrix" values="0 0 0 0 0 0 0 0 0 0 0 0 0 0 0 0 0 0 127 0" result="hardAlpha"/>
<feOffset dy="6"/>
<feGaussianBlur stdDeviation="7.5"/>
<feComposite in2="hardAlpha" operator="out"/>
<feColorMatrix type="matrix" values="0 0 0 0 0 0 0 0 0 0 0 0 0 0 0 0 0 0 0.25 0"/>
<feBlend mode="normal" in2="BackgroundImageFix" result="effect1_dropShadow_64_5"/>
<feBlend mode="normal" in="SourceGraphic" in2="effect1_dropShadow_64_5" result="shape"/>
</filter>
<filter id="filter1_d_64_5" x="0" y="0" width="99" height="99" filterUnits="userSpaceOnUse" color-interpolation-filters="sRGB">
<feFlood flood-opacity="0" result="BackgroundImageFix"/>
<feColorMatrix in="SourceAlpha" type="matrix" values="0 0 0 0 0 0 0 0 0 0 0 0 0 0 0 0 0 0 127 0" result="hardAlpha"/>
<feOffset dy="4"/>
<feGaussianBlur stdDeviation="2"/>
<feComposite in2="hardAlpha" operator="out"/>
<feColorMatrix type="matrix" values="0 0 0 0 0 0 0 0 0 0 0 0 0 0 0 0 0 0 0.25 0"/>
<feBlend mode="normal" in2="BackgroundImageFix" result="effect1_dropShadow_64_5"/>
<feBlend mode="normal" in="SourceGraphic" in2="effect1_dropShadow_64_5" result="shape"/>
</filter>
<linearGradient id="paint0_linear_64_5" x1="15.5" y1="22" x2="80.5" y2="78" gradientUnits="userSpaceOnUse">
<stop stop-color="#D9E476"/>
<stop offset="1" stop-color="#B0B960"/>
</linearGradient>
</defs>
</svg>
