<svg width="154" height="77" viewBox="0 0 154 77" fill="none" xmlns="http://www.w3.org/2000/svg">
<path d="M113.358 0C97.4531 0 85.0128 9.93781 77 18.9131C68.9872 9.93781 56.5469 0 40.6416 0C18.2394 0 0 17.2769 0 38.5C0 59.7231 18.2394 77 40.6416 77C56.5469 77 68.9872 67.0622 77 58.0869C85.0128 67.0622 97.4531 77 113.358 77C135.761 77 154 59.7231 154 38.5C154 17.2769 135.761 0 113.358 0ZM40.6416 53.9C30.9684 53.9 23.1 46.9941 23.1 38.5C23.1 30.0059 30.9684 23.1 40.6416 23.1C49.8334 23.1 58.3034 31.7866 63.2603 38.5C58.3516 45.1412 49.8094 53.9 40.6416 53.9V53.9ZM113.358 53.9C104.167 53.9 95.6966 45.2134 90.7397 38.5C95.6484 31.8587 104.191 23.1 113.358 23.1C123.032 23.1 130.9 30.0059 130.9 38.5C130.9 46.9941 123.032 53.9 113.358 53.9Z" fill="#f3f3f3"/>
</svg>
