<svg width="259" height="259" viewBox="0 0 259 259" fill="none" xmlns="http://www.w3.org/2000/svg">
<path d="M33.5044 138.228L27.8681 117.195L43.265 101.798L64.2982 107.434L66.2098 114.57L69.5903 115.474L66.7753 104.957L42.3553 98.4175L24.4814 116.291L31.0274 140.705L41.544 143.52L40.6343 140.14L33.5044 138.228Z" fill="#CADB2B"/>
<path d="M69.9345 128.467L54.5376 143.864L44.021 141.043L44.9245 144.43L55.4411 147.245L73.3151 129.371L70.5 118.86L67.1133 117.951L69.9345 128.467Z" fill="#CADB2B"/>
<path d="M80.107 118.295L69.5904 115.474L70.5 118.86L77.6299 120.766L83.2663 141.799L67.8693 157.196L46.8361 151.566L44.9246 144.43L41.544 143.52L44.3591 154.037L68.7729 160.583L86.6468 142.709L80.107 118.295Z" fill="#3BA6DE"/>
<path d="M56.5967 115.13L67.1133 117.951L66.2098 114.57L55.6932 111.749L37.8192 129.623L40.6343 140.14L44.021 141.043L41.1998 130.533L56.5967 115.13Z" fill="#3BA6DE"/>
<path d="M44.021 141.043L40.6343 140.14L41.544 143.52L44.9246 144.43L44.021 141.043Z" fill="#3BA6DE"/>
<path d="M67.1133 117.951L70.5 118.861L69.5903 115.474L66.2098 114.57L67.1133 117.951Z" fill="#CADB2B"/>
<path d="M103.703 116.451H96.3029V108.676H92.5044V128.246H96.3029V120.065H103.703V128.246H107.502V108.676H103.703V116.451Z" fill="#F3F3F3"/>
<path d="M116.113 120.01H122.763V116.476H116.113V112.29H125.062V108.676H112.308V128.246H125.253V124.632H116.113V120.01Z" fill="#F3F3F3"/>
<path d="M145.118 108.676H140.76L136.366 115.179L131.922 108.676H127.472L133.975 117.877L126.961 128.246H131.418L136.132 121.086L140.945 128.246H145.512L138.572 118.141L145.118 108.676Z" fill="#F3F3F3"/>
<path d="M153.901 108.676L146.464 128.246H150.509L151.953 124.263H159.568L161.038 128.246H165.082L157.559 108.676H153.901ZM153.225 120.754L155.721 113.894L158.259 120.754H153.225Z" fill="#F3F3F3"/>
<path d="M164.775 112.29H170.386V128.246H174.191V112.29H179.747V108.676H164.775V112.29Z" fill="#F3F3F3"/>
<path d="M186.883 120.01H193.54V116.476H186.883V112.29H195.839V108.676H183.085V128.246H196.029V124.632H186.883V120.01Z" fill="#F3F3F3"/>
<path d="M208.316 111.94C209.209 111.902 210.091 112.147 210.836 112.64C211.574 113.19 212.179 113.898 212.606 114.712L212.908 115.253L215.741 113.095L215.551 112.696C214.931 111.432 213.995 110.35 212.834 109.555C211.495 108.691 209.921 108.262 208.329 108.326C207.126 108.317 205.932 108.538 204.813 108.977C203.737 109.413 202.775 110.088 201.998 110.95C201.175 111.879 200.547 112.964 200.154 114.14C199.277 116.962 199.277 119.984 200.154 122.807C200.551 123.978 201.178 125.059 201.998 125.984C202.775 126.836 203.733 127.503 204.8 127.939C205.907 128.378 207.089 128.599 208.279 128.59C209.743 128.631 211.189 128.266 212.458 127.536C213.727 126.806 214.77 125.739 215.471 124.454L215.729 124.03L212.828 121.934L212.527 122.426C212.072 123.22 211.441 123.899 210.683 124.411C209.974 124.83 209.163 125.043 208.341 125.026C207.655 125.056 206.972 124.928 206.344 124.653C205.715 124.379 205.158 123.963 204.714 123.44C203.792 122.358 203.319 120.698 203.319 118.523C203.319 116.347 203.792 114.644 204.714 113.569C205.151 113.041 205.703 112.62 206.327 112.337C206.951 112.055 207.631 111.919 208.316 111.94Z" fill="#F3F3F3"/>
<path d="M230.714 108.676V116.451H223.314V108.676H219.515V128.246H223.314V120.065H230.714V128.246H234.512V108.676H230.714Z" fill="#F3F3F3"/>
<path d="M93.5308 146.667C94.0525 147.278 94.695 147.774 95.4178 148.124C96.2624 148.522 97.1889 148.715 98.1223 148.689C99.0322 148.742 99.9379 148.528 100.728 148.074C101.038 147.879 101.291 147.606 101.463 147.283C101.634 146.959 101.718 146.596 101.706 146.23C101.722 146.007 101.691 145.782 101.616 145.57C101.541 145.359 101.423 145.165 101.269 145.001C100.945 144.702 100.562 144.474 100.144 144.331C99.7865 144.201 99.4212 144.092 99.0504 144.005L97.8211 143.735C97.4093 143.649 96.9975 143.551 96.5918 143.446C96.1738 143.345 95.7631 143.215 95.3625 143.059C94.6735 142.794 94.0551 142.373 93.5554 141.83C93.0967 141.271 92.8642 140.56 92.9039 139.838C92.8954 139.284 93.0132 138.736 93.2481 138.234C93.4781 137.741 93.8189 137.308 94.2438 136.968C94.7301 136.592 95.2826 136.31 95.8727 136.138C96.5864 135.925 97.3283 135.821 98.0731 135.831C98.7059 135.824 99.3372 135.892 99.9539 136.033C100.469 136.15 100.968 136.327 101.441 136.562C101.852 136.764 102.238 137.014 102.591 137.306C102.891 137.545 103.159 137.822 103.39 138.129L101.915 139.439C101.469 138.931 100.931 138.514 100.329 138.209C99.5995 137.865 98.7991 137.699 97.9932 137.724C97.2105 137.681 96.4326 137.869 95.7559 138.265C95.5054 138.416 95.2988 138.63 95.1565 138.885C95.0141 139.141 94.9411 139.429 94.9445 139.721C94.9324 139.917 94.9636 140.114 95.0358 140.296C95.1081 140.479 95.2196 140.644 95.3625 140.779C95.6474 141.033 95.9711 141.241 96.3214 141.393C96.6781 141.527 97.0436 141.636 97.4154 141.719C97.8149 141.811 98.2206 141.897 98.6447 141.977C99.0688 142.057 99.4806 142.155 99.874 142.26C100.291 142.364 100.702 142.494 101.103 142.647C101.446 142.784 101.777 142.948 102.093 143.139C102.407 143.325 102.685 143.564 102.917 143.846C103.161 144.142 103.356 144.476 103.494 144.835C103.645 145.263 103.718 145.715 103.709 146.169C103.724 146.838 103.575 147.501 103.273 148.099C102.98 148.649 102.558 149.119 102.044 149.47C101.482 149.85 100.858 150.128 100.2 150.293C99.453 150.486 98.6844 150.581 97.9133 150.576C96.6419 150.614 95.3791 150.356 94.2254 149.82C93.3066 149.393 92.4972 148.763 91.859 147.976L93.5308 146.667Z" fill="#F3F3F3"/>
<path d="M112.118 135.696C112.985 135.687 113.846 135.85 114.65 136.175C115.414 136.493 116.095 136.981 116.642 137.601C117.229 138.293 117.672 139.096 117.945 139.961C118.273 141.011 118.431 142.107 118.412 143.207C118.432 144.303 118.274 145.394 117.945 146.44C117.67 147.297 117.227 148.091 116.642 148.775C116.092 149.39 115.412 149.873 114.65 150.189C113.846 150.515 112.985 150.678 112.118 150.669C111.252 150.679 110.393 150.516 109.592 150.189C108.836 149.873 108.161 149.39 107.619 148.775C107.039 148.089 106.6 147.296 106.328 146.44C105.999 145.394 105.841 144.303 105.861 143.207C105.841 142.107 105.999 141.011 106.328 139.961C106.599 139.098 107.038 138.296 107.619 137.601C108.159 136.981 108.834 136.494 109.592 136.175C110.393 135.848 111.252 135.685 112.118 135.696ZM112.118 137.675C111.537 137.67 110.962 137.792 110.434 138.031C109.924 138.273 109.477 138.631 109.131 139.076C108.742 139.59 108.456 140.175 108.289 140.797C108.074 141.582 107.973 142.393 107.987 143.207C107.974 144.012 108.075 144.815 108.289 145.592C108.456 146.214 108.742 146.799 109.131 147.313C109.477 147.758 109.924 148.116 110.434 148.358C110.962 148.597 111.537 148.719 112.118 148.714C112.706 148.719 113.289 148.597 113.827 148.358C114.342 148.116 114.794 147.758 115.148 147.313C115.546 146.802 115.836 146.217 116.002 145.592C116.218 144.815 116.322 144.012 116.31 143.207C116.323 142.393 116.219 141.582 116.002 140.797C115.836 140.172 115.546 139.587 115.148 139.076C114.794 138.631 114.342 138.273 113.827 138.031C113.289 137.794 112.706 137.674 112.118 137.681V137.675Z" fill="#F3F3F3"/>
<path d="M123.544 135.966V148.419H130.92V150.398H121.436V135.966H123.544Z" fill="#F3F3F3"/>
<path d="M134.35 135.966V145.002C134.341 145.527 134.426 146.049 134.602 146.544C134.752 146.96 134.989 147.339 135.296 147.657C135.594 147.958 135.955 148.189 136.353 148.333C137.188 148.646 138.107 148.646 138.941 148.333C139.339 148.186 139.702 147.955 140.004 147.657C140.319 147.34 140.564 146.961 140.723 146.544C140.903 146.05 140.991 145.527 140.982 145.002V135.966H143.108V145.002C143.125 145.827 142.981 146.647 142.684 147.417C142.421 148.074 142.019 148.665 141.504 149.15C140.999 149.608 140.408 149.959 139.765 150.183C138.39 150.642 136.904 150.642 135.53 150.183C134.872 149.964 134.271 149.603 133.77 149.125C133.268 148.647 132.878 148.064 132.629 147.417C132.332 146.647 132.188 145.827 132.204 145.002V135.966H134.35Z" fill="#F3F3F3"/>
<path d="M155.997 135.966V137.945H151.664V150.398H149.538V137.945H145.155V135.966H155.997Z" fill="#F3F3F3"/>
<path d="M160.38 135.966V150.398H158.235V135.966H160.38Z" fill="#F3F3F3"/>
<path d="M169.643 135.696C170.51 135.687 171.371 135.85 172.175 136.175C172.94 136.49 173.622 136.978 174.166 137.601C174.756 138.292 175.199 139.095 175.469 139.961C175.8 141.011 175.96 142.107 175.943 143.207C175.961 144.303 175.801 145.395 175.469 146.44C175.198 147.298 174.754 148.093 174.166 148.775C173.62 149.393 172.938 149.876 172.175 150.189C171.371 150.515 170.51 150.678 169.643 150.669C168.777 150.679 167.918 150.516 167.116 150.189C166.361 149.874 165.689 149.391 165.15 148.775C164.566 148.091 164.125 147.297 163.853 146.44C163.523 145.394 163.366 144.303 163.386 143.207C163.366 142.107 163.524 141.011 163.853 139.961C164.123 139.096 164.564 138.294 165.15 137.601C165.686 136.98 166.36 136.492 167.116 136.175C167.918 135.849 168.777 135.686 169.643 135.696ZM169.643 137.675C169.064 137.669 168.491 137.791 167.965 138.031C167.453 138.27 167.006 138.628 166.662 139.076C166.271 139.59 165.983 140.174 165.813 140.797C165.599 141.582 165.497 142.393 165.512 143.207C165.499 144.012 165.6 144.815 165.813 145.592C165.983 146.215 166.271 146.799 166.662 147.313C167.006 147.761 167.453 148.119 167.965 148.357C168.489 148.609 169.062 148.741 169.643 148.745C170.231 148.75 170.814 148.629 171.351 148.388C171.869 148.15 172.322 147.792 172.673 147.343C173.07 146.832 173.363 146.247 173.533 145.622C173.744 144.845 173.845 144.043 173.835 143.237C173.846 142.424 173.745 141.613 173.533 140.828C173.363 140.203 173.07 139.618 172.673 139.107C172.322 138.658 171.869 138.3 171.351 138.062C170.816 137.813 170.233 137.683 169.643 137.681V137.675Z" fill="#F3F3F3"/>
<path d="M181.093 135.966L187.978 146.606V135.966H190.104V150.398H188.119L181.093 139.869V150.398H178.967V135.966H181.093Z" fill="#F3F3F3"/>
<path d="M193.817 146.667C194.336 147.281 194.979 147.78 195.704 148.13C196.546 148.527 197.471 148.721 198.402 148.695C199.314 148.749 200.222 148.535 201.014 148.081C201.324 147.886 201.577 147.613 201.749 147.289C201.92 146.966 202.004 146.603 201.991 146.237C202.007 146.013 201.977 145.788 201.902 145.577C201.827 145.365 201.709 145.171 201.555 145.008C201.231 144.708 200.848 144.48 200.43 144.338C200.071 144.207 199.703 144.098 199.33 144.012L198.101 143.741C197.689 143.655 197.277 143.557 196.871 143.452C196.453 143.351 196.043 143.222 195.642 143.065C194.952 142.802 194.334 142.381 193.835 141.836C193.375 141.278 193.14 140.567 193.177 139.844C193.172 139.291 193.289 138.743 193.522 138.24C193.756 137.748 194.099 137.315 194.524 136.974C195.01 136.598 195.562 136.317 196.152 136.144C196.866 135.931 197.608 135.828 198.353 135.837C198.984 135.83 199.613 135.898 200.227 136.04C200.745 136.155 201.246 136.332 201.721 136.568C202.132 136.771 202.518 137.02 202.87 137.312C203.169 137.553 203.437 137.83 203.669 138.136L202.219 139.427C201.777 138.918 201.241 138.5 200.639 138.197C199.908 137.853 199.105 137.686 198.297 137.712C197.515 137.684 196.741 137.887 196.072 138.296C195.822 138.447 195.615 138.661 195.473 138.916C195.331 139.172 195.258 139.46 195.261 139.752C195.249 139.948 195.28 140.145 195.352 140.327C195.425 140.51 195.536 140.675 195.679 140.809C195.964 141.064 196.288 141.272 196.638 141.424C196.995 141.558 197.36 141.667 197.732 141.75C198.132 141.842 198.537 141.928 198.961 142.008C199.385 142.088 199.797 142.186 200.221 142.291C200.638 142.395 201.049 142.525 201.451 142.678C201.793 142.816 202.124 142.98 202.44 143.17C202.75 143.341 203.029 143.563 203.264 143.827C203.509 144.123 203.702 144.457 203.835 144.817C203.992 145.244 204.067 145.696 204.057 146.151C204.072 146.82 203.922 147.483 203.62 148.081C203.327 148.63 202.906 149.101 202.391 149.451C201.829 149.831 201.205 150.11 200.547 150.275C199.8 150.467 199.032 150.562 198.261 150.558C196.989 150.596 195.726 150.337 194.573 149.802C193.654 149.375 192.845 148.745 192.206 147.958L193.817 146.667Z" fill="#F3F3F3"/>
</svg>
