<svg width="460" height="164" viewBox="0 0 460 164" fill="none" xmlns="http://www.w3.org/2000/svg">
<g filter="url(#filter0_d_64_2)">
<rect x="36" y="34" width="409" height="109" rx="15" fill="#F3F3F3"/>
<rect x="37.5" y="35.5" width="406" height="106" rx="13.5" stroke="#8E964D" stroke-width="3"/>
</g>
<g filter="url(#filter1_d_64_2)">
<circle cx="49.5" cy="45.5" r="45.5" fill="url(#paint0_linear_64_2)"/>
</g>
<g clip-path="url(#clip0_64_2)">
<path d="M29.323 24L27 26.323L31.0922 33.3999L33.7461 33.0107L49.9452 49.2115L48.5634 50.5385C47.8557 51.2462 47.8557 52.3183 48.5634 53.026L49.2817 53.7461C49.9894 54.4538 51.0722 54.4538 51.6029 53.7461L53.7048 55.8462C53.5278 56.9077 53.7048 58.1692 54.5894 59.0538L64.1538 68.5634C66.1 70.5095 69.2846 70.5095 71.2308 68.5634C73.5308 66.4403 73.5095 63.2663 71.5634 61.3202L62.0538 51.7539C61.1692 50.8693 59.9077 50.5155 58.8462 50.8693L56.5232 48.7692C57.0539 48.0615 57.0539 46.9788 56.5232 46.4462L55.8597 45.7845C55.6989 45.6168 55.5058 45.4834 55.292 45.3922C55.0783 45.301 54.8483 45.254 54.6159 45.254C54.3835 45.254 54.1536 45.301 53.9398 45.3922C53.7261 45.4834 53.533 45.6168 53.3722 45.7845L52.2115 46.9452L36.0125 30.7461L36.3982 28.0922L29.3212 24L29.323 24ZM63.823 24.0548C60.3323 23.7647 55.704 26.0788 53.5385 28.0905C50.874 30.7549 51.3092 34.2385 53.427 37.6018L49.6692 41.3615L52.323 44.3462C53.7384 43.1077 55.8261 43.1077 57.2415 44.3462L57.9615 45.0645L58.1278 45.2308L59.6759 43.6827C62.8747 45.5634 66.2044 45.8341 68.7432 43.2952C71.2202 40.9952 73.9058 35.3231 72.6674 31.9615L67.6923 37.1029C66.9846 37.8106 65.9125 37.8106 65.2048 37.1029L60.0616 31.9615C59.8939 31.8007 59.7604 31.6076 59.6693 31.3939C59.5781 31.1801 59.5311 30.9501 59.5311 30.7178C59.5311 30.4854 59.5781 30.2554 59.6693 30.0417C59.7604 29.8279 59.8939 29.6348 60.0616 29.474L65.2065 24.3326C64.7642 24.1769 64.3219 24.0973 63.823 24.0548ZM44.3615 46.1154L37.9462 52.5288C37.2569 52.3757 36.5523 52.3015 35.8462 52.3077C30.8923 52.3077 27 56.2 27 61.1538C27 66.1077 30.8923 70 35.8462 70C40.8 70 44.6923 66.1077 44.6923 61.1538C44.6923 60.2462 44.549 59.374 44.3048 58.5548L48.0645 54.7952L47.5125 54.0769C46.0971 52.6615 46.1077 50.5172 47.3462 49.1001L44.3597 46.1154H44.3615ZM58.073 54.1884C58.2942 54.1884 58.5029 54.2308 58.6798 54.4095L69.1307 64.8586C69.4845 65.2125 69.4845 65.7751 69.1307 66.1289C68.7768 66.4828 68.2107 66.4828 67.8568 66.1289L57.4095 55.6798C57.0557 55.326 57.0557 54.7634 57.4095 54.4095C57.5865 54.2326 57.8518 54.1884 58.073 54.1884ZM37.0634 56.5627L40.4355 59.9366L39.2183 64.5242L34.6307 65.7415L31.2568 62.3675L32.474 57.7799L37.0634 56.5627V56.5627Z" fill="#333333"/>
</g>
<path d="M155.406 90.584L155.718 93.56H155.814L156.15 90.536L159.078 81.2H161.238L164.118 90.584L164.454 93.56H164.55L164.91 90.536L166.95 81.2H170.286L165.654 98.12H163.446L160.446 88.784L160.038 86.216H159.918L159.51 88.808L156.534 98.12H154.206L149.598 81.2H153.174L155.406 90.584ZM179.995 96.968C179.515 97.352 178.859 97.68 178.027 97.952C177.211 98.208 176.339 98.336 175.411 98.336C173.475 98.336 172.059 97.776 171.163 96.656C170.267 95.52 169.819 93.968 169.819 92C169.819 89.888 170.323 88.304 171.331 87.248C172.339 86.192 173.755 85.664 175.579 85.664C176.187 85.664 176.779 85.744 177.355 85.904C177.931 86.064 178.443 86.328 178.891 86.696C179.339 87.064 179.699 87.56 179.971 88.184C180.243 88.808 180.379 89.584 180.379 90.512C180.379 90.848 180.355 91.208 180.307 91.592C180.275 91.976 180.219 92.376 180.139 92.792H172.939C172.987 93.8 173.243 94.56 173.707 95.072C174.187 95.584 174.955 95.84 176.011 95.84C176.667 95.84 177.251 95.744 177.763 95.552C178.291 95.344 178.691 95.136 178.963 94.928L179.995 96.968ZM175.531 88.16C174.715 88.16 174.107 88.408 173.707 88.904C173.323 89.384 173.091 90.032 173.011 90.848H177.475C177.539 89.984 177.403 89.32 177.067 88.856C176.747 88.392 176.235 88.16 175.531 88.16ZM182.583 81.2H185.703V86.96H185.799C186.135 86.576 186.567 86.272 187.095 86.048C187.623 85.824 188.207 85.712 188.847 85.712C190.287 85.712 191.383 86.208 192.135 87.2C192.903 88.176 193.287 89.672 193.287 91.688C193.287 93.848 192.751 95.488 191.679 96.608C190.623 97.728 189.167 98.288 187.311 98.288C186.287 98.288 185.351 98.2 184.503 98.024C183.655 97.864 183.015 97.68 182.583 97.472V81.2ZM187.935 88.352C187.359 88.352 186.887 88.504 186.519 88.808C186.167 89.096 185.895 89.52 185.703 90.08V95.312C185.959 95.44 186.231 95.528 186.519 95.576C186.823 95.624 187.143 95.648 187.479 95.648C188.327 95.648 188.967 95.344 189.399 94.736C189.847 94.112 190.071 93.128 190.071 91.784C190.071 89.496 189.359 88.352 187.935 88.352ZM208.336 98V91.472C208.336 90.368 208.232 89.584 208.024 89.12C207.816 88.656 207.384 88.424 206.728 88.424C206.184 88.424 205.744 88.576 205.408 88.88C205.072 89.168 204.816 89.544 204.64 90.008V98H201.52V86H203.944L204.304 87.584H204.4C204.768 87.072 205.232 86.624 205.792 86.24C206.368 85.856 207.104 85.664 208 85.664C208.768 85.664 209.392 85.824 209.872 86.144C210.368 86.448 210.752 86.968 211.024 87.704C211.392 87.08 211.864 86.584 212.44 86.216C213.016 85.848 213.712 85.664 214.528 85.664C215.2 85.664 215.768 85.744 216.232 85.904C216.712 86.064 217.096 86.344 217.384 86.744C217.688 87.128 217.912 87.648 218.056 88.304C218.2 88.96 218.272 89.792 218.272 90.8V98H215.152V91.256C215.152 90.312 215.048 89.608 214.84 89.144C214.648 88.664 214.208 88.424 213.52 88.424C212.96 88.424 212.512 88.576 212.176 88.88C211.856 89.184 211.616 89.6 211.456 90.128V98H208.336ZM220.761 86.696C221.401 86.408 222.161 86.184 223.041 86.024C223.921 85.848 224.841 85.76 225.801 85.76C226.633 85.76 227.329 85.864 227.889 86.072C228.449 86.264 228.889 86.544 229.209 86.912C229.545 87.28 229.777 87.72 229.905 88.232C230.049 88.744 230.121 89.32 230.121 89.96C230.121 90.664 230.097 91.376 230.049 92.096C230.001 92.8 229.969 93.496 229.953 94.184C229.953 94.872 229.977 95.544 230.025 96.2C230.073 96.84 230.193 97.448 230.385 98.024H227.841L227.337 96.368H227.217C226.897 96.864 226.449 97.296 225.873 97.664C225.313 98.016 224.585 98.192 223.689 98.192C223.129 98.192 222.625 98.112 222.177 97.952C221.729 97.776 221.345 97.536 221.025 97.232C220.705 96.912 220.457 96.544 220.281 96.128C220.105 95.696 220.017 95.216 220.017 94.688C220.017 93.952 220.177 93.336 220.497 92.84C220.833 92.328 221.305 91.92 221.913 91.616C222.537 91.296 223.273 91.08 224.121 90.968C224.985 90.84 225.945 90.8 227.001 90.848C227.113 89.952 227.049 89.312 226.809 88.928C226.569 88.528 226.033 88.328 225.201 88.328C224.577 88.328 223.913 88.392 223.209 88.52C222.521 88.648 221.953 88.816 221.505 89.024L220.761 86.696ZM224.721 95.624C225.345 95.624 225.841 95.488 226.209 95.216C226.577 94.928 226.849 94.624 227.025 94.304V92.744C226.529 92.696 226.049 92.688 225.585 92.72C225.137 92.752 224.737 92.824 224.385 92.936C224.033 93.048 223.753 93.208 223.545 93.416C223.337 93.624 223.233 93.888 223.233 94.208C223.233 94.656 223.361 95.008 223.617 95.264C223.889 95.504 224.257 95.624 224.721 95.624ZM233.003 86H236.123V98H233.003V86ZM232.547 82.616C232.547 82.152 232.715 81.76 233.051 81.44C233.403 81.104 233.883 80.936 234.491 80.936C235.099 80.936 235.587 81.104 235.955 81.44C236.339 81.76 236.531 82.152 236.531 82.616C236.531 83.08 236.339 83.472 235.955 83.792C235.587 84.096 235.099 84.248 234.491 84.248C233.883 84.248 233.403 84.096 233.051 83.792C232.715 83.472 232.547 83.08 232.547 82.616ZM246.528 98V91.184C246.528 90.208 246.384 89.504 246.096 89.072C245.824 88.64 245.352 88.424 244.68 88.424C244.088 88.424 243.584 88.6 243.168 88.952C242.768 89.288 242.48 89.712 242.304 90.224V98H239.184V86H241.656L242.016 87.584H242.112C242.48 87.072 242.968 86.624 243.576 86.24C244.184 85.856 244.968 85.664 245.928 85.664C246.52 85.664 247.048 85.744 247.512 85.904C247.976 86.064 248.368 86.328 248.688 86.696C249.008 87.064 249.248 87.568 249.408 88.208C249.568 88.832 249.648 89.608 249.648 90.536V98H246.528ZM251.015 86H252.671V83.744L255.791 82.856V86H258.719V88.64H255.791V93.248C255.791 94.08 255.871 94.68 256.031 95.048C256.207 95.4 256.527 95.576 256.991 95.576C257.311 95.576 257.583 95.544 257.807 95.48C258.047 95.416 258.311 95.32 258.599 95.192L259.151 97.592C258.719 97.8 258.215 97.976 257.639 98.12C257.063 98.264 256.479 98.336 255.887 98.336C254.783 98.336 253.967 98.056 253.439 97.496C252.927 96.92 252.671 95.984 252.671 94.688V88.64H251.015V86ZM260.558 86.696C261.198 86.408 261.958 86.184 262.838 86.024C263.718 85.848 264.638 85.76 265.598 85.76C266.43 85.76 267.126 85.864 267.686 86.072C268.246 86.264 268.686 86.544 269.006 86.912C269.342 87.28 269.574 87.72 269.702 88.232C269.846 88.744 269.918 89.32 269.918 89.96C269.918 90.664 269.894 91.376 269.846 92.096C269.798 92.8 269.766 93.496 269.75 94.184C269.75 94.872 269.774 95.544 269.822 96.2C269.87 96.84 269.99 97.448 270.182 98.024H267.638L267.134 96.368H267.014C266.694 96.864 266.246 97.296 265.67 97.664C265.11 98.016 264.382 98.192 263.486 98.192C262.926 98.192 262.422 98.112 261.974 97.952C261.526 97.776 261.142 97.536 260.822 97.232C260.502 96.912 260.254 96.544 260.078 96.128C259.902 95.696 259.814 95.216 259.814 94.688C259.814 93.952 259.974 93.336 260.294 92.84C260.63 92.328 261.102 91.92 261.71 91.616C262.334 91.296 263.07 91.08 263.918 90.968C264.782 90.84 265.742 90.8 266.798 90.848C266.91 89.952 266.846 89.312 266.606 88.928C266.366 88.528 265.83 88.328 264.998 88.328C264.374 88.328 263.71 88.392 263.006 88.52C262.318 88.648 261.75 88.816 261.302 89.024L260.558 86.696ZM264.518 95.624C265.142 95.624 265.638 95.488 266.006 95.216C266.374 94.928 266.646 94.624 266.822 94.304V92.744C266.326 92.696 265.846 92.688 265.382 92.72C264.934 92.752 264.534 92.824 264.182 92.936C263.83 93.048 263.55 93.208 263.342 93.416C263.134 93.624 263.03 93.888 263.03 94.208C263.03 94.656 263.158 95.008 263.414 95.264C263.686 95.504 264.054 95.624 264.518 95.624ZM279.88 98V91.184C279.88 90.208 279.736 89.504 279.448 89.072C279.176 88.64 278.704 88.424 278.032 88.424C277.44 88.424 276.936 88.6 276.52 88.952C276.12 89.288 275.832 89.712 275.656 90.224V98H272.536V86H275.008L275.368 87.584H275.464C275.832 87.072 276.32 86.624 276.928 86.24C277.536 85.856 278.32 85.664 279.28 85.664C279.872 85.664 280.4 85.744 280.864 85.904C281.328 86.064 281.72 86.328 282.04 86.696C282.36 87.064 282.6 87.568 282.76 88.208C282.92 88.832 283 89.608 283 90.536V98H279.88ZM285.542 86.696C286.182 86.408 286.942 86.184 287.822 86.024C288.702 85.848 289.622 85.76 290.582 85.76C291.414 85.76 292.11 85.864 292.67 86.072C293.23 86.264 293.67 86.544 293.99 86.912C294.326 87.28 294.558 87.72 294.686 88.232C294.83 88.744 294.902 89.32 294.902 89.96C294.902 90.664 294.878 91.376 294.83 92.096C294.782 92.8 294.75 93.496 294.734 94.184C294.734 94.872 294.758 95.544 294.806 96.2C294.854 96.84 294.974 97.448 295.166 98.024H292.622L292.118 96.368H291.998C291.678 96.864 291.23 97.296 290.654 97.664C290.094 98.016 289.366 98.192 288.47 98.192C287.91 98.192 287.406 98.112 286.958 97.952C286.51 97.776 286.126 97.536 285.806 97.232C285.486 96.912 285.238 96.544 285.062 96.128C284.886 95.696 284.798 95.216 284.798 94.688C284.798 93.952 284.958 93.336 285.278 92.84C285.614 92.328 286.086 91.92 286.694 91.616C287.318 91.296 288.054 91.08 288.902 90.968C289.766 90.84 290.726 90.8 291.782 90.848C291.894 89.952 291.83 89.312 291.59 88.928C291.35 88.528 290.814 88.328 289.982 88.328C289.358 88.328 288.694 88.392 287.99 88.52C287.302 88.648 286.734 88.816 286.286 89.024L285.542 86.696ZM289.502 95.624C290.126 95.624 290.622 95.488 290.99 95.216C291.358 94.928 291.63 94.624 291.806 94.304V92.744C291.31 92.696 290.83 92.688 290.366 92.72C289.918 92.752 289.518 92.824 289.166 92.936C288.814 93.048 288.534 93.208 288.326 93.416C288.118 93.624 288.014 93.888 288.014 94.208C288.014 94.656 288.142 95.008 288.398 95.264C288.67 95.504 289.038 95.624 289.502 95.624ZM304.864 98V91.184C304.864 90.208 304.72 89.504 304.432 89.072C304.16 88.64 303.688 88.424 303.016 88.424C302.424 88.424 301.92 88.6 301.504 88.952C301.104 89.288 300.816 89.712 300.64 90.224V98H297.52V86H299.992L300.352 87.584H300.448C300.816 87.072 301.304 86.624 301.912 86.24C302.52 85.856 303.304 85.664 304.264 85.664C304.856 85.664 305.384 85.744 305.848 85.904C306.312 86.064 306.704 86.328 307.024 86.696C307.344 87.064 307.584 87.568 307.744 88.208C307.904 88.832 307.984 89.608 307.984 90.536V98H304.864ZM319.094 97.256C318.614 97.608 318.03 97.872 317.342 98.048C316.67 98.24 315.974 98.336 315.254 98.336C314.294 98.336 313.478 98.184 312.806 97.88C312.15 97.576 311.614 97.152 311.198 96.608C310.782 96.048 310.478 95.376 310.286 94.592C310.11 93.808 310.022 92.944 310.022 92C310.022 89.968 310.478 88.408 311.39 87.32C312.302 86.216 313.63 85.664 315.374 85.664C316.254 85.664 316.958 85.736 317.486 85.88C318.03 86.024 318.518 86.208 318.95 86.432L318.206 88.976C317.838 88.8 317.47 88.664 317.102 88.568C316.75 88.472 316.342 88.424 315.878 88.424C315.014 88.424 314.358 88.712 313.91 89.288C313.462 89.848 313.238 90.752 313.238 92C313.238 92.512 313.294 92.984 313.406 93.416C313.518 93.848 313.686 94.224 313.91 94.544C314.134 94.864 314.422 95.12 314.774 95.312C315.142 95.488 315.566 95.576 316.046 95.576C316.574 95.576 317.022 95.512 317.39 95.384C317.758 95.24 318.086 95.072 318.374 94.88L319.094 97.256ZM330.183 96.968C329.703 97.352 329.047 97.68 328.215 97.952C327.399 98.208 326.527 98.336 325.599 98.336C323.663 98.336 322.247 97.776 321.351 96.656C320.455 95.52 320.007 93.968 320.007 92C320.007 89.888 320.511 88.304 321.519 87.248C322.527 86.192 323.943 85.664 325.767 85.664C326.375 85.664 326.967 85.744 327.543 85.904C328.119 86.064 328.631 86.328 329.079 86.696C329.527 87.064 329.887 87.56 330.159 88.184C330.431 88.808 330.567 89.584 330.567 90.512C330.567 90.848 330.543 91.208 330.495 91.592C330.463 91.976 330.407 92.376 330.327 92.792H323.127C323.175 93.8 323.431 94.56 323.895 95.072C324.375 95.584 325.143 95.84 326.199 95.84C326.855 95.84 327.439 95.744 327.951 95.552C328.479 95.344 328.879 95.136 329.151 94.928L330.183 96.968ZM325.719 88.16C324.903 88.16 324.295 88.408 323.895 88.904C323.511 89.384 323.279 90.032 323.199 90.848H327.663C327.727 89.984 327.591 89.32 327.255 88.856C326.935 88.392 326.423 88.16 325.719 88.16Z" fill="#333333"/>
<defs>
<filter id="filter0_d_64_2" x="21" y="25" width="439" height="139" filterUnits="userSpaceOnUse" color-interpolation-filters="sRGB">
<feFlood flood-opacity="0" result="BackgroundImageFix"/>
<feColorMatrix in="SourceAlpha" type="matrix" values="0 0 0 0 0 0 0 0 0 0 0 0 0 0 0 0 0 0 127 0" result="hardAlpha"/>
<feOffset dy="6"/>
<feGaussianBlur stdDeviation="7.5"/>
<feComposite in2="hardAlpha" operator="out"/>
<feColorMatrix type="matrix" values="0 0 0 0 0 0 0 0 0 0 0 0 0 0 0 0 0 0 0.25 0"/>
<feBlend mode="normal" in2="BackgroundImageFix" result="effect1_dropShadow_64_2"/>
<feBlend mode="normal" in="SourceGraphic" in2="effect1_dropShadow_64_2" result="shape"/>
</filter>
<filter id="filter1_d_64_2" x="0" y="0" width="99" height="99" filterUnits="userSpaceOnUse" color-interpolation-filters="sRGB">
<feFlood flood-opacity="0" result="BackgroundImageFix"/>
<feColorMatrix in="SourceAlpha" type="matrix" values="0 0 0 0 0 0 0 0 0 0 0 0 0 0 0 0 0 0 127 0" result="hardAlpha"/>
<feOffset dy="4"/>
<feGaussianBlur stdDeviation="2"/>
<feComposite in2="hardAlpha" operator="out"/>
<feColorMatrix type="matrix" values="0 0 0 0 0 0 0 0 0 0 0 0 0 0 0 0 0 0 0.25 0"/>
<feBlend mode="normal" in2="BackgroundImageFix" result="effect1_dropShadow_64_2"/>
<feBlend mode="normal" in="SourceGraphic" in2="effect1_dropShadow_64_2" result="shape"/>
</filter>
<linearGradient id="paint0_linear_64_2" x1="15.5" y1="22" x2="80.5" y2="78" gradientUnits="userSpaceOnUse">
<stop stop-color="#D9E476"/>
<stop offset="1" stop-color="#B0B960"/>
</linearGradient>
<clipPath id="clip0_64_2">
<rect width="46" height="46" fill="white" transform="translate(27 24)"/>
</clipPath>
</defs>
</svg>
