<svg width="102" height="102" viewBox="0 0 102 102" fill="none" xmlns="http://www.w3.org/2000/svg">
<path d="M102 51C102 79.1647 79.1647 102 51 102C22.8353 102 0 79.1647 0 51C0 43.2395 1.72975 35.8913 4.83225 29.3037C2.88397 34.1576 1.86889 39.3354 1.84025 44.5655C1.84025 67.66 20.485 71.0005 28.4197 70.9282C40.477 70.8177 54.5743 64.9102 66.4488 53.9665L64.447 65.229C63.9965 67.8002 65.6795 70.0655 68.255 70.0825H69.3175C71.9822 70.0825 73.8778 67.9108 74.358 65.2247L78.6335 41.1613C79.1435 38.4923 77.3882 36.3162 74.7192 36.3162H50.609C47.9315 36.3162 45.4793 37.7357 44.999 40.4302L44.812 41.514C44.4295 44.0767 46.2145 46.0062 48.7688 46.0062H61.3488C61.1455 46.2011 60.9443 46.398 60.7453 46.597C52.0753 54.7995 41.3823 59.296 32.5252 59.296C23.6852 59.296 13.7828 53.7157 13.7828 41.1527C13.7828 15.1087 38.2075 0 51 0C79.1095 0 102 22.8353 102 51Z" fill="#F3F3F3"/>
</svg>
