<svg width="107" height="107" viewBox="0 0 107 107" fill="none" xmlns="http://www.w3.org/2000/svg">
<path d="M28.9792 28.9792C28.9792 21.6229 34.9979 15.6042 42.3542 15.6042H64.6458C72.0021 15.6042 78.0208 21.6229 78.0208 28.9792H86.9375C86.9375 16.7187 76.9063 6.6875 64.6458 6.6875H42.3542C30.0938 6.6875 20.0625 16.7187 20.0625 28.9792V53.9458H28.9792V28.9792Z" fill="#F3F3F3"/>
<path d="M10.2542 49.0415L24.5209 67.7665L38.7875 49.0415H10.2542Z" fill="#F3F3F3"/>
<path d="M78.0208 78.021C78.0208 85.3773 72.0021 91.396 64.6458 91.396H42.3542C34.9979 91.396 28.9792 85.3773 28.9792 78.021H20.0625C20.0625 90.2814 30.0938 100.313 42.3542 100.313H64.6458C76.9063 100.313 86.9375 90.2814 86.9375 78.021V51.271H78.0208V78.021Z" fill="#F3F3F3"/>
<path d="M68.2125 57.9584L82.4792 39.2334L96.7458 57.9584H68.2125Z" fill="#F3F3F3"/>
</svg>
