<svg width="446" height="162" viewBox="0 0 446 162" fill="none" xmlns="http://www.w3.org/2000/svg">
<g filter="url(#filter0_d_17_597)">
<rect x="22" y="32" width="409" height="109" rx="15" fill="#F3F3F3"/>
<rect x="23.5" y="33.5" width="406" height="106" rx="13.5" stroke="#8E964D" stroke-width="3"/>
</g>
<path d="M101.089 88.584L101.401 91.56H101.497L101.833 88.536L104.761 79.2H106.921L109.801 88.584L110.137 91.56H110.233L110.593 88.536L112.633 79.2H115.969L111.337 96.12H109.129L106.129 86.784L105.721 84.216H105.601L105.193 86.808L102.217 96.12H99.8893L95.2812 79.2H98.8573L101.089 88.584ZM125.679 94.968C125.199 95.352 124.543 95.68 123.711 95.952C122.895 96.208 122.023 96.336 121.095 96.336C119.159 96.336 117.743 95.776 116.847 94.656C115.951 93.52 115.503 91.968 115.503 90C115.503 87.888 116.007 86.304 117.015 85.248C118.023 84.192 119.439 83.664 121.263 83.664C121.871 83.664 122.463 83.744 123.039 83.904C123.615 84.064 124.127 84.328 124.575 84.696C125.023 85.064 125.383 85.56 125.655 86.184C125.927 86.808 126.063 87.584 126.063 88.512C126.063 88.848 126.039 89.208 125.991 89.592C125.959 89.976 125.903 90.376 125.823 90.792H118.623C118.671 91.8 118.927 92.56 119.391 93.072C119.871 93.584 120.639 93.84 121.695 93.84C122.351 93.84 122.935 93.744 123.447 93.552C123.975 93.344 124.375 93.136 124.647 92.928L125.679 94.968ZM121.215 86.16C120.399 86.16 119.791 86.408 119.391 86.904C119.007 87.384 118.775 88.032 118.695 88.848H123.159C123.223 87.984 123.087 87.32 122.751 86.856C122.431 86.392 121.919 86.16 121.215 86.16ZM128.266 79.2H131.386V84.96H131.482C131.818 84.576 132.25 84.272 132.778 84.048C133.306 83.824 133.89 83.712 134.53 83.712C135.97 83.712 137.066 84.208 137.818 85.2C138.586 86.176 138.97 87.672 138.97 89.688C138.97 91.848 138.434 93.488 137.362 94.608C136.306 95.728 134.85 96.288 132.994 96.288C131.97 96.288 131.034 96.2 130.186 96.024C129.338 95.864 128.698 95.68 128.266 95.472V79.2ZM133.618 86.352C133.042 86.352 132.57 86.504 132.202 86.808C131.85 87.096 131.578 87.52 131.386 88.08V93.312C131.642 93.44 131.914 93.528 132.202 93.576C132.506 93.624 132.826 93.648 133.162 93.648C134.01 93.648 134.65 93.344 135.082 92.736C135.53 92.112 135.754 91.128 135.754 89.784C135.754 87.496 135.042 86.352 133.618 86.352ZM157.404 91.776C157.404 92.448 157.412 93.12 157.428 93.792C157.444 94.464 157.516 95.208 157.644 96.024H155.412L154.98 94.464H154.884C154.564 95.024 154.1 95.48 153.492 95.832C152.9 96.168 152.196 96.336 151.38 96.336C149.876 96.336 148.708 95.84 147.876 94.848C147.044 93.856 146.628 92.304 146.628 90.192C146.628 88.144 147.092 86.552 148.02 85.416C148.948 84.28 150.308 83.712 152.1 83.712C152.596 83.712 153.004 83.744 153.324 83.808C153.644 83.856 153.964 83.944 154.284 84.072V79.2H157.404V91.776ZM152.1 93.696C152.708 93.696 153.188 93.552 153.54 93.264C153.892 92.96 154.14 92.528 154.284 91.968V86.88C154.06 86.704 153.812 86.576 153.54 86.496C153.268 86.4 152.916 86.352 152.484 86.352C151.604 86.352 150.94 86.648 150.492 87.24C150.06 87.832 149.844 88.848 149.844 90.288C149.844 91.312 150.02 92.136 150.372 92.76C150.74 93.384 151.316 93.696 152.1 93.696ZM169.741 94.968C169.261 95.352 168.605 95.68 167.773 95.952C166.957 96.208 166.085 96.336 165.157 96.336C163.221 96.336 161.805 95.776 160.909 94.656C160.013 93.52 159.565 91.968 159.565 90C159.565 87.888 160.069 86.304 161.077 85.248C162.085 84.192 163.501 83.664 165.325 83.664C165.933 83.664 166.525 83.744 167.101 83.904C167.677 84.064 168.189 84.328 168.637 84.696C169.085 85.064 169.445 85.56 169.717 86.184C169.989 86.808 170.125 87.584 170.125 88.512C170.125 88.848 170.101 89.208 170.053 89.592C170.021 89.976 169.965 90.376 169.885 90.792H162.685C162.733 91.8 162.989 92.56 163.453 93.072C163.933 93.584 164.701 93.84 165.757 93.84C166.413 93.84 166.997 93.744 167.509 93.552C168.037 93.344 168.437 93.136 168.709 92.928L169.741 94.968ZM165.277 86.16C164.461 86.16 163.853 86.408 163.453 86.904C163.069 87.384 162.837 88.032 162.757 88.848H167.221C167.285 87.984 167.149 87.32 166.813 86.856C166.493 86.392 165.981 86.16 165.277 86.16ZM177.297 92.688C177.297 92.368 177.161 92.112 176.889 91.92C176.617 91.728 176.281 91.552 175.881 91.392C175.481 91.232 175.041 91.072 174.561 90.912C174.081 90.736 173.641 90.504 173.241 90.216C172.841 89.912 172.505 89.536 172.233 89.088C171.961 88.624 171.825 88.032 171.825 87.312C171.825 86.128 172.177 85.224 172.881 84.6C173.585 83.976 174.601 83.664 175.929 83.664C176.841 83.664 177.665 83.76 178.401 83.952C179.137 84.144 179.713 84.36 180.129 84.6L179.433 86.856C179.065 86.712 178.601 86.56 178.041 86.4C177.481 86.24 176.913 86.16 176.337 86.16C175.409 86.16 174.945 86.52 174.945 87.24C174.945 87.528 175.081 87.76 175.353 87.936C175.625 88.112 175.961 88.28 176.361 88.44C176.761 88.584 177.201 88.744 177.681 88.92C178.161 89.096 178.601 89.328 179.001 89.616C179.401 89.888 179.737 90.248 180.009 90.696C180.281 91.144 180.417 91.72 180.417 92.424C180.417 93.64 180.025 94.6 179.241 95.304C178.473 95.992 177.313 96.336 175.761 96.336C174.913 96.336 174.113 96.224 173.361 96C172.625 95.792 172.025 95.544 171.561 95.256L172.425 92.928C172.793 93.136 173.281 93.344 173.889 93.552C174.497 93.744 175.121 93.84 175.761 93.84C176.225 93.84 176.593 93.752 176.865 93.576C177.153 93.4 177.297 93.104 177.297 92.688ZM182.718 84H185.838V96H182.718V84ZM182.262 80.616C182.262 80.152 182.43 79.76 182.766 79.44C183.118 79.104 183.598 78.936 184.206 78.936C184.814 78.936 185.302 79.104 185.67 79.44C186.054 79.76 186.246 80.152 186.246 80.616C186.246 81.08 186.054 81.472 185.67 81.792C185.302 82.096 184.814 82.248 184.206 82.248C183.598 82.248 183.118 82.096 182.766 81.792C182.43 81.472 182.262 81.08 182.262 80.616ZM199.051 96C199.051 97.744 198.579 99.024 197.635 99.84C196.691 100.672 195.371 101.088 193.675 101.088C192.523 101.088 191.611 101.008 190.939 100.848C190.283 100.688 189.787 100.52 189.451 100.344L190.099 97.872C190.467 98.016 190.891 98.16 191.371 98.304C191.867 98.448 192.475 98.52 193.195 98.52C194.283 98.52 195.019 98.28 195.403 97.8C195.803 97.336 196.003 96.68 196.003 95.832V95.064H195.907C195.347 95.816 194.355 96.192 192.931 96.192C191.379 96.192 190.219 95.712 189.451 94.752C188.699 93.792 188.323 92.288 188.323 90.24C188.323 88.096 188.835 86.472 189.859 85.368C190.883 84.264 192.371 83.712 194.323 83.712C195.347 83.712 196.259 83.784 197.059 83.928C197.875 84.072 198.539 84.24 199.051 84.432V96ZM193.771 93.696C194.379 93.696 194.843 93.56 195.163 93.288C195.499 93.016 195.755 92.608 195.931 92.064V86.664C195.435 86.456 194.819 86.352 194.083 86.352C193.283 86.352 192.659 86.656 192.211 87.264C191.763 87.856 191.539 88.808 191.539 90.12C191.539 91.288 191.731 92.176 192.115 92.784C192.499 93.392 193.051 93.696 193.771 93.696ZM209.11 96V89.184C209.11 88.208 208.966 87.504 208.678 87.072C208.406 86.64 207.934 86.424 207.262 86.424C206.67 86.424 206.166 86.6 205.75 86.952C205.35 87.288 205.062 87.712 204.886 88.224V96H201.766V84H204.238L204.598 85.584H204.694C205.062 85.072 205.55 84.624 206.158 84.24C206.766 83.856 207.55 83.664 208.51 83.664C209.102 83.664 209.63 83.744 210.094 83.904C210.558 84.064 210.95 84.328 211.27 84.696C211.59 85.064 211.83 85.568 211.99 86.208C212.15 86.832 212.23 87.608 212.23 88.536V96H209.11ZM220.843 84.696C221.483 84.408 222.243 84.184 223.123 84.024C224.003 83.848 224.923 83.76 225.883 83.76C226.715 83.76 227.411 83.864 227.971 84.072C228.531 84.264 228.971 84.544 229.291 84.912C229.627 85.28 229.859 85.72 229.987 86.232C230.131 86.744 230.203 87.32 230.203 87.96C230.203 88.664 230.179 89.376 230.131 90.096C230.083 90.8 230.051 91.496 230.035 92.184C230.035 92.872 230.059 93.544 230.107 94.2C230.155 94.84 230.275 95.448 230.467 96.024H227.923L227.419 94.368H227.299C226.979 94.864 226.531 95.296 225.955 95.664C225.395 96.016 224.667 96.192 223.771 96.192C223.211 96.192 222.707 96.112 222.259 95.952C221.811 95.776 221.427 95.536 221.107 95.232C220.787 94.912 220.539 94.544 220.363 94.128C220.187 93.696 220.099 93.216 220.099 92.688C220.099 91.952 220.259 91.336 220.579 90.84C220.915 90.328 221.387 89.92 221.995 89.616C222.619 89.296 223.355 89.08 224.203 88.968C225.067 88.84 226.027 88.8 227.083 88.848C227.195 87.952 227.131 87.312 226.891 86.928C226.651 86.528 226.115 86.328 225.283 86.328C224.659 86.328 223.995 86.392 223.291 86.52C222.603 86.648 222.035 86.816 221.587 87.024L220.843 84.696ZM224.803 93.624C225.427 93.624 225.923 93.488 226.291 93.216C226.659 92.928 226.931 92.624 227.107 92.304V90.744C226.611 90.696 226.131 90.688 225.667 90.72C225.219 90.752 224.819 90.824 224.467 90.936C224.115 91.048 223.835 91.208 223.627 91.416C223.419 91.624 223.315 91.888 223.315 92.208C223.315 92.656 223.443 93.008 223.699 93.264C223.971 93.504 224.339 93.624 224.803 93.624ZM240.165 96V89.184C240.165 88.208 240.021 87.504 239.733 87.072C239.461 86.64 238.989 86.424 238.317 86.424C237.725 86.424 237.221 86.6 236.805 86.952C236.405 87.288 236.117 87.712 235.941 88.224V96H232.821V84H235.293L235.653 85.584H235.749C236.117 85.072 236.605 84.624 237.213 84.24C237.821 83.856 238.605 83.664 239.565 83.664C240.157 83.664 240.685 83.744 241.149 83.904C241.613 84.064 242.005 84.328 242.325 84.696C242.645 85.064 242.885 85.568 243.045 86.208C243.205 86.832 243.285 87.608 243.285 88.536V96H240.165ZM256.099 91.776C256.099 92.448 256.107 93.12 256.123 93.792C256.139 94.464 256.211 95.208 256.339 96.024H254.107L253.675 94.464H253.579C253.259 95.024 252.795 95.48 252.187 95.832C251.595 96.168 250.891 96.336 250.075 96.336C248.571 96.336 247.403 95.84 246.571 94.848C245.739 93.856 245.323 92.304 245.323 90.192C245.323 88.144 245.787 86.552 246.715 85.416C247.643 84.28 249.003 83.712 250.795 83.712C251.291 83.712 251.699 83.744 252.019 83.808C252.339 83.856 252.659 83.944 252.979 84.072V79.2H256.099V91.776ZM250.795 93.696C251.403 93.696 251.883 93.552 252.235 93.264C252.587 92.96 252.835 92.528 252.979 91.968V86.88C252.755 86.704 252.507 86.576 252.235 86.496C251.963 86.4 251.611 86.352 251.179 86.352C250.299 86.352 249.635 86.648 249.187 87.24C248.755 87.832 248.539 88.848 248.539 90.288C248.539 91.312 248.715 92.136 249.067 92.76C249.435 93.384 250.011 93.696 250.795 93.696ZM275.107 91.776C275.107 92.448 275.115 93.12 275.131 93.792C275.147 94.464 275.219 95.208 275.347 96.024H273.115L272.683 94.464H272.587C272.267 95.024 271.803 95.48 271.195 95.832C270.603 96.168 269.899 96.336 269.083 96.336C267.579 96.336 266.411 95.84 265.579 94.848C264.747 93.856 264.331 92.304 264.331 90.192C264.331 88.144 264.795 86.552 265.723 85.416C266.651 84.28 268.011 83.712 269.803 83.712C270.299 83.712 270.707 83.744 271.027 83.808C271.347 83.856 271.667 83.944 271.987 84.072V79.2H275.107V91.776ZM269.803 93.696C270.411 93.696 270.891 93.552 271.243 93.264C271.595 92.96 271.843 92.528 271.987 91.968V86.88C271.763 86.704 271.515 86.576 271.243 86.496C270.971 86.4 270.619 86.352 270.187 86.352C269.307 86.352 268.643 86.648 268.195 87.24C267.763 87.832 267.547 88.848 267.547 90.288C267.547 91.312 267.723 92.136 268.075 92.76C268.443 93.384 269.019 93.696 269.803 93.696ZM287.445 94.968C286.965 95.352 286.309 95.68 285.477 95.952C284.661 96.208 283.789 96.336 282.861 96.336C280.925 96.336 279.509 95.776 278.613 94.656C277.717 93.52 277.269 91.968 277.269 90C277.269 87.888 277.773 86.304 278.781 85.248C279.789 84.192 281.205 83.664 283.029 83.664C283.637 83.664 284.229 83.744 284.805 83.904C285.381 84.064 285.893 84.328 286.341 84.696C286.789 85.064 287.149 85.56 287.421 86.184C287.693 86.808 287.829 87.584 287.829 88.512C287.829 88.848 287.805 89.208 287.757 89.592C287.725 89.976 287.669 90.376 287.589 90.792H280.389C280.437 91.8 280.693 92.56 281.157 93.072C281.637 93.584 282.405 93.84 283.461 93.84C284.117 93.84 284.701 93.744 285.213 93.552C285.741 93.344 286.141 93.136 286.413 92.928L287.445 94.968ZM282.981 86.16C282.165 86.16 281.557 86.408 281.157 86.904C280.773 87.384 280.541 88.032 280.461 88.848H284.925C284.989 87.984 284.853 87.32 284.517 86.856C284.197 86.392 283.685 86.16 282.981 86.16ZM293.856 90.288L294.264 92.136H294.384L294.72 90.24L296.76 84H300.12L295.104 96.12H293.208L288 84H291.624L293.856 90.288ZM310.577 94.968C310.097 95.352 309.441 95.68 308.609 95.952C307.793 96.208 306.921 96.336 305.993 96.336C304.057 96.336 302.641 95.776 301.745 94.656C300.849 93.52 300.401 91.968 300.401 90C300.401 87.888 300.905 86.304 301.913 85.248C302.921 84.192 304.337 83.664 306.161 83.664C306.769 83.664 307.361 83.744 307.937 83.904C308.513 84.064 309.025 84.328 309.473 84.696C309.921 85.064 310.281 85.56 310.553 86.184C310.825 86.808 310.961 87.584 310.961 88.512C310.961 88.848 310.937 89.208 310.889 89.592C310.857 89.976 310.801 90.376 310.721 90.792H303.521C303.569 91.8 303.825 92.56 304.289 93.072C304.769 93.584 305.537 93.84 306.593 93.84C307.249 93.84 307.833 93.744 308.345 93.552C308.873 93.344 309.273 93.136 309.545 92.928L310.577 94.968ZM306.113 86.16C305.297 86.16 304.689 86.408 304.289 86.904C303.905 87.384 303.673 88.032 303.593 88.848H308.057C308.121 87.984 307.985 87.32 307.649 86.856C307.329 86.392 306.817 86.16 306.113 86.16ZM316.381 91.968C316.381 92.528 316.453 92.936 316.597 93.192C316.741 93.448 316.973 93.576 317.293 93.576C317.485 93.576 317.669 93.56 317.845 93.528C318.037 93.496 318.269 93.424 318.541 93.312L318.877 95.76C318.621 95.888 318.229 96.016 317.701 96.144C317.173 96.272 316.629 96.336 316.069 96.336C315.157 96.336 314.461 96.128 313.981 95.712C313.501 95.28 313.261 94.576 313.261 93.6V79.2H316.381V91.968ZM319.644 90C319.644 87.968 320.14 86.408 321.132 85.32C322.124 84.216 323.516 83.664 325.308 83.664C326.268 83.664 327.1 83.816 327.804 84.12C328.508 84.424 329.092 84.856 329.556 85.416C330.02 85.96 330.364 86.624 330.588 87.408C330.828 88.192 330.948 89.056 330.948 90C330.948 92.032 330.452 93.6 329.46 94.704C328.484 95.792 327.1 96.336 325.308 96.336C324.348 96.336 323.516 96.184 322.812 95.88C322.108 95.576 321.516 95.152 321.036 94.608C320.572 94.048 320.22 93.376 319.98 92.592C319.756 91.808 319.644 90.944 319.644 90ZM322.86 90C322.86 90.528 322.908 91.016 323.004 91.464C323.1 91.912 323.244 92.304 323.436 92.64C323.628 92.976 323.876 93.24 324.18 93.432C324.5 93.608 324.876 93.696 325.308 93.696C326.124 93.696 326.732 93.4 327.132 92.808C327.532 92.216 327.732 91.28 327.732 90C327.732 88.896 327.548 88.008 327.18 87.336C326.812 86.648 326.188 86.304 325.308 86.304C324.54 86.304 323.94 86.592 323.508 87.168C323.076 87.744 322.86 88.688 322.86 90ZM333.11 84H335.39L335.75 85.44H335.846C336.262 84.832 336.75 84.384 337.31 84.096C337.886 83.808 338.582 83.664 339.398 83.664C340.902 83.664 342.03 84.144 342.782 85.104C343.534 86.048 343.91 87.576 343.91 89.688C343.91 90.712 343.79 91.64 343.55 92.472C343.31 93.288 342.95 93.984 342.47 94.56C342.006 95.136 341.43 95.576 340.742 95.88C340.07 96.184 339.294 96.336 338.414 96.336C337.918 96.336 337.51 96.296 337.19 96.216C336.87 96.152 336.55 96.04 336.23 95.88V100.8H333.11V84ZM338.462 86.304C337.854 86.304 337.374 86.456 337.022 86.76C336.686 87.064 336.422 87.52 336.23 88.128V93.12C336.454 93.296 336.694 93.44 336.95 93.552C337.222 93.648 337.574 93.696 338.006 93.696C338.902 93.696 339.574 93.384 340.022 92.76C340.47 92.12 340.694 91.072 340.694 89.616C340.694 88.56 340.518 87.744 340.166 87.168C339.814 86.592 339.246 86.304 338.462 86.304ZM352.887 96V89.472C352.887 88.368 352.783 87.584 352.575 87.12C352.367 86.656 351.935 86.424 351.279 86.424C350.735 86.424 350.295 86.576 349.959 86.88C349.623 87.168 349.367 87.544 349.191 88.008V96H346.071V84H348.495L348.855 85.584H348.951C349.319 85.072 349.783 84.624 350.343 84.24C350.919 83.856 351.655 83.664 352.551 83.664C353.319 83.664 353.943 83.824 354.423 84.144C354.919 84.448 355.303 84.968 355.575 85.704C355.943 85.08 356.415 84.584 356.991 84.216C357.567 83.848 358.263 83.664 359.079 83.664C359.751 83.664 360.319 83.744 360.783 83.904C361.263 84.064 361.647 84.344 361.935 84.744C362.239 85.128 362.463 85.648 362.607 86.304C362.751 86.96 362.823 87.792 362.823 88.8V96H359.703V89.256C359.703 88.312 359.599 87.608 359.391 87.144C359.199 86.664 358.759 86.424 358.071 86.424C357.511 86.424 357.063 86.576 356.727 86.88C356.407 87.184 356.167 87.6 356.007 88.128V96H352.887ZM374.984 94.968C374.504 95.352 373.848 95.68 373.016 95.952C372.2 96.208 371.328 96.336 370.4 96.336C368.464 96.336 367.048 95.776 366.152 94.656C365.256 93.52 364.808 91.968 364.808 90C364.808 87.888 365.312 86.304 366.32 85.248C367.328 84.192 368.744 83.664 370.568 83.664C371.176 83.664 371.768 83.744 372.344 83.904C372.92 84.064 373.432 84.328 373.88 84.696C374.328 85.064 374.688 85.56 374.96 86.184C375.232 86.808 375.368 87.584 375.368 88.512C375.368 88.848 375.344 89.208 375.296 89.592C375.264 89.976 375.208 90.376 375.128 90.792H367.928C367.976 91.8 368.232 92.56 368.696 93.072C369.176 93.584 369.944 93.84 371 93.84C371.656 93.84 372.24 93.744 372.752 93.552C373.28 93.344 373.68 93.136 373.952 92.928L374.984 94.968ZM370.52 86.16C369.704 86.16 369.096 86.408 368.696 86.904C368.312 87.384 368.08 88.032 368 88.848H372.464C372.528 87.984 372.392 87.32 372.056 86.856C371.736 86.392 371.224 86.16 370.52 86.16ZM384.915 96V89.184C384.915 88.208 384.771 87.504 384.483 87.072C384.211 86.64 383.739 86.424 383.067 86.424C382.475 86.424 381.971 86.6 381.555 86.952C381.155 87.288 380.867 87.712 380.691 88.224V96H377.571V84H380.043L380.403 85.584H380.499C380.867 85.072 381.355 84.624 381.963 84.24C382.571 83.856 383.355 83.664 384.315 83.664C384.907 83.664 385.435 83.744 385.899 83.904C386.363 84.064 386.755 84.328 387.075 84.696C387.395 85.064 387.635 85.568 387.795 86.208C387.955 86.832 388.035 87.608 388.035 88.536V96H384.915ZM389.401 84H391.057V81.744L394.177 80.856V84H397.105V86.64H394.177V91.248C394.177 92.08 394.257 92.68 394.417 93.048C394.593 93.4 394.913 93.576 395.377 93.576C395.697 93.576 395.969 93.544 396.193 93.48C396.433 93.416 396.697 93.32 396.985 93.192L397.537 95.592C397.105 95.8 396.601 95.976 396.025 96.12C395.449 96.264 394.865 96.336 394.273 96.336C393.169 96.336 392.353 96.056 391.825 95.496C391.313 94.92 391.057 93.984 391.057 92.688V86.64H389.401V84Z" fill="#333333"/>
<g filter="url(#filter1_d_17_597)">
<circle cx="49.5" cy="45.5" r="45.5" fill="url(#paint0_linear_17_597)"/>
</g>
<path d="M65.6684 53.9166C65.965 51.4691 66.1875 49.0216 66.1875 46.5C66.1875 43.9783 65.965 41.5308 65.6684 39.0833H78.2025C78.7959 41.4566 79.1667 43.9412 79.1667 46.5C79.1667 49.0587 78.7959 51.5433 78.2025 53.9166H65.6684ZM59.1046 74.535C61.3296 70.4187 63.0354 65.9687 64.2221 61.3333H75.1617C71.5689 67.5198 65.869 72.2061 59.1046 74.535ZM58.1775 53.9166H40.8225C40.4517 51.4691 40.2292 49.0216 40.2292 46.5C40.2292 43.9783 40.4517 41.4937 40.8225 39.0833H58.1775C58.5113 41.4937 58.7709 43.9783 58.7709 46.5C58.7709 49.0216 58.5113 51.4691 58.1775 53.9166ZM49.5 76.0183C46.4221 71.5683 43.9375 66.6362 42.4171 61.3333H56.5829C55.0625 66.6362 52.5779 71.5683 49.5 76.0183ZM34.6667 31.6666H23.8384C27.3941 25.4634 33.0899 20.7696 39.8584 18.465C37.6334 22.5812 35.9646 27.0312 34.6667 31.6666ZM23.8384 61.3333H34.6667C35.9646 65.9687 37.6334 70.4187 39.8584 74.535C33.1041 72.2049 27.4163 67.5178 23.8384 61.3333ZM20.7975 53.9166C20.2042 51.5433 19.8334 49.0587 19.8334 46.5C19.8334 43.9412 20.2042 41.4566 20.7975 39.0833H33.3317C33.035 41.5308 32.8125 43.9783 32.8125 46.5C32.8125 49.0216 33.035 51.4691 33.3317 53.9166H20.7975ZM49.5 16.9445C52.5779 21.3945 55.0625 26.3637 56.5829 31.6666H42.4171C43.9375 26.3637 46.4221 21.3945 49.5 16.9445ZM75.1617 31.6666H64.2221C63.0615 27.0737 61.3429 22.6402 59.1046 18.465C65.9279 20.8012 71.6017 25.5108 75.1617 31.6666ZM49.5 9.41663C28.9929 9.41663 12.4167 26.1041 12.4167 46.5C12.4167 56.3351 16.3237 65.7674 23.2781 72.7218C26.7217 76.1653 30.8097 78.8969 35.3088 80.7605C39.808 82.6241 44.6302 83.5833 49.5 83.5833C59.3351 83.5833 68.7674 79.6763 75.7219 72.7218C82.6764 65.7674 86.5834 56.3351 86.5834 46.5C86.5834 41.6301 85.6242 36.8079 83.7606 32.3088C81.8969 27.8096 79.1654 23.7216 75.7219 20.2781C72.2784 16.8346 68.1904 14.103 63.6912 12.2394C59.192 10.3758 54.3699 9.41663 49.5 9.41663Z" fill="#333333"/>
<defs>
<filter id="filter0_d_17_597" x="7" y="23" width="439" height="139" filterUnits="userSpaceOnUse" color-interpolation-filters="sRGB">
<feFlood flood-opacity="0" result="BackgroundImageFix"/>
<feColorMatrix in="SourceAlpha" type="matrix" values="0 0 0 0 0 0 0 0 0 0 0 0 0 0 0 0 0 0 127 0" result="hardAlpha"/>
<feOffset dy="6"/>
<feGaussianBlur stdDeviation="7.5"/>
<feComposite in2="hardAlpha" operator="out"/>
<feColorMatrix type="matrix" values="0 0 0 0 0 0 0 0 0 0 0 0 0 0 0 0 0 0 0.25 0"/>
<feBlend mode="normal" in2="BackgroundImageFix" result="effect1_dropShadow_17_597"/>
<feBlend mode="normal" in="SourceGraphic" in2="effect1_dropShadow_17_597" result="shape"/>
</filter>
<filter id="filter1_d_17_597" x="0" y="0" width="99" height="99" filterUnits="userSpaceOnUse" color-interpolation-filters="sRGB">
<feFlood flood-opacity="0" result="BackgroundImageFix"/>
<feColorMatrix in="SourceAlpha" type="matrix" values="0 0 0 0 0 0 0 0 0 0 0 0 0 0 0 0 0 0 127 0" result="hardAlpha"/>
<feOffset dy="4"/>
<feGaussianBlur stdDeviation="2"/>
<feComposite in2="hardAlpha" operator="out"/>
<feColorMatrix type="matrix" values="0 0 0 0 0 0 0 0 0 0 0 0 0 0 0 0 0 0 0.25 0"/>
<feBlend mode="normal" in2="BackgroundImageFix" result="effect1_dropShadow_17_597"/>
<feBlend mode="normal" in="SourceGraphic" in2="effect1_dropShadow_17_597" result="shape"/>
</filter>
<linearGradient id="paint0_linear_17_597" x1="15.5" y1="22" x2="80.5" y2="78" gradientUnits="userSpaceOnUse">
<stop stop-color="#E4BB76"/>
<stop offset="1" stop-color="#B0B960"/>
</linearGradient>
</defs>
</svg>
